<svg xmlns="http://www.w3.org/2000/svg" viewBox="0 0 720 3316.18" width="720" height="3316.18" role="img" aria-labelledby="t"><title id="t">Why Pod: agents got fast, the tools around them didn't</title><desc>A fleet of agents works a Mac hard: terminals flood, subscriptions run dry, dev servers eat memory and builds pile up. Pod is made for that load.</desc><defs><path id="n34" d="M985 367H340L211 0H20L561 1464H766L1305 0H1114ZM401 530H926L666 1294H662Z"/><path id="n72" d="M856 1044H1020V57Q1020 -149 898 -256Q776 -362 557 -362Q350 -362 224 -268Q97 -173 84 -33H248Q264 -119 337 -169Q410 -219 549 -219Q856 -219 856 59V217H852Q741 53 520 53Q422 53 338 85Q254 117 190 178Q126 240 90 338Q53 437 53 563Q53 689 90 788Q126 886 190 948Q254 1009 338 1041Q422 1073 520 1073Q732 1073 852 915H856ZM541 197Q690 197 773 290Q856 382 856 563Q856 744 773 837Q690 930 541 930Q386 930 302 827Q217 724 217 563Q217 402 302 300Q386 197 541 197Z"/><path id="n70" d="M557 115Q617 115 667 130Q717 145 750 167Q782 189 806 218Q831 247 844 272Q856 298 862 322H1026Q983 165 866 68Q748 -29 563 -29Q328 -29 190 122Q53 273 53 522Q53 781 188 927Q324 1073 555 1073Q797 1073 920 918Q1042 763 1042 479H217Q217 382 254 301Q290 220 369 168Q448 115 557 115ZM555 930Q409 930 313 840Q217 751 217 623H879Q879 752 789 841Q699 930 555 930Z"/><path id="n79" d="M625 1073Q698 1073 760 1052Q822 1032 871 992Q920 951 948 884Q975 816 975 729V0H811V688Q811 797 756 864Q701 930 584 930Q447 930 362 852Q276 773 276 651V0H113V1044H276V920H281Q329 985 416 1029Q502 1073 625 1073Z"/><path id="n85" d="M567 901H362V272Q362 187 409 161Q456 135 567 143V0Q512 -12 444 -12Q328 -12 264 48Q199 107 199 256V901H45V1044H199V1393H362V1044H567Z"/><path id="n84" d="M537 621Q549 618 575 612Q645 595 682 585Q718 575 775 550Q832 524 860 494Q889 463 912 410Q934 356 934 287Q934 146 818 58Q702 -29 522 -29Q291 -29 172 72Q53 172 45 348H209Q212 308 220 278Q228 249 248 216Q269 183 302 162Q334 142 390 128Q446 115 522 115Q644 115 707 165Q770 215 770 276Q770 304 763 327Q756 350 746 366Q737 382 718 396Q699 409 684 418Q668 426 639 434Q610 443 592 448Q573 452 538 460Q502 468 483 473Q464 478 420 487Q377 496 352 502Q328 508 288 521Q248 534 224 547Q200 560 170 582Q141 604 125 630Q109 656 98 694Q86 731 86 776Q86 903 192 988Q298 1073 477 1073Q664 1073 772 980Q880 888 893 745H729Q723 774 716 796Q708 817 690 844Q672 871 646 888Q621 906 578 918Q534 930 477 930Q370 930 310 890Q250 851 250 788Q250 758 262 735Q275 712 290 698Q306 684 340 671Q375 658 396 652Q418 647 467 636Q516 626 537 621Z"/><path id="n80" d="M565 -29Q800 -29 938 123Q1075 275 1075 522Q1075 769 938 921Q800 1073 565 1073Q329 1073 191 922Q53 770 53 522Q53 274 191 122Q329 -29 565 -29ZM565 115Q396 115 306 230Q217 345 217 522Q217 699 306 814Q396 930 565 930Q732 930 822 814Q911 699 911 522Q911 345 822 230Q732 115 565 115Z"/><path id="n71" d="M553 1321Q443 1329 398 1304Q354 1278 354 1192V1044H553V901H354V0H190V901H45V1044H190V1208Q190 1357 255 1417Q320 1477 436 1477Q493 1477 553 1464Z"/><path id="n66" d="M752 778Q752 930 539 930Q392 930 332 883Q272 836 264 721H100Q108 882 216 978Q323 1073 539 1073Q601 1073 654 1063Q708 1053 757 1029Q806 1005 840 968Q874 931 894 874Q915 816 915 743V236Q915 168 938 140Q961 113 1034 121V6Q985 -10 938 -10Q859 -10 816 20Q773 49 752 131H748Q640 -29 393 -29Q236 -29 142 53Q49 135 49 268Q49 338 70 391Q92 444 127 479Q162 514 223 542Q284 569 345 585Q406 601 496 618Q642 645 697 675Q752 705 752 778ZM410 115Q565 115 658 187Q752 259 752 403V578Q712 538 510 496Q351 462 282 414Q213 366 213 276Q213 115 410 115Z"/><path id="n15" d="M90 98Q90 148 122 180Q155 211 203 211Q251 211 283 180Q315 148 315 98Q315 47 284 16Q252 -14 203 -14Q154 -14 122 16Q90 47 90 98Z"/><path id="n53" d="M532 0V1300H45V1464H1204V1300H717V0Z"/><path id="n73" d="M625 1073Q698 1073 760 1052Q822 1032 871 992Q920 951 948 884Q975 816 975 729V0H811V688Q811 797 756 864Q701 930 584 930Q447 930 362 852Q276 773 276 651V0H113V1464H276V920H281Q329 985 416 1029Q502 1073 625 1073Z"/><path id="n77" d="M119 1464H283V0H119Z"/><path id="n83" d="M569 1073Q622 1073 666 1067V903H662Q495 930 386 828Q276 727 276 557V0H113V1044H276V838H281Q326 950 394 1012Q463 1073 569 1073Z"/><path id="n86" d="M805 1044H969V0H805V125H801Q753 60 666 16Q579 -29 457 -29Q384 -29 322 -8Q259 12 210 52Q162 93 134 160Q106 228 106 315V1044H270V356Q270 247 326 181Q381 115 498 115Q635 115 720 193Q805 271 805 393Z"/><path id="n69" d="M856 1464H1020V0H856V129H852Q732 -29 524 -29Q426 -29 340 9Q254 47 190 117Q127 187 90 292Q53 396 53 522Q53 648 90 752Q127 857 190 927Q254 997 340 1035Q426 1073 524 1073Q741 1073 852 909H856ZM541 115Q686 115 771 226Q856 336 856 522Q856 708 771 819Q686 930 541 930Q463 930 400 896Q337 861 298 803Q259 745 238 672Q217 600 217 522Q217 416 252 326Q287 235 362 175Q438 115 541 115Z"/><path id="n78" d="M1204 1073Q1360 1073 1439 984Q1518 896 1518 729V0H1354V688Q1354 744 1347 784Q1340 823 1320 858Q1301 894 1262 912Q1222 930 1163 930Q1042 930 970 852Q897 774 897 651V0H733V688Q733 744 726 784Q719 823 700 858Q681 894 642 912Q602 930 543 930Q422 930 349 852Q276 774 276 651V0H113V1044H276V920H281Q395 1073 584 1073Q796 1073 862 893H866Q998 1073 1204 1073Z"/><path id="n74" d="M215 1247Q178 1247 146 1274Q113 1302 113 1346Q113 1390 145 1417Q177 1444 215 1444Q254 1444 286 1417Q317 1390 317 1346Q317 1302 286 1274Q254 1247 215 1247ZM133 1044H297V0H133Z"/><path id="n8" d="M86 1464H250L229 1026H106Z"/><path id="s34" d="M0 0 269 725H387L660 0H550L493 157H160L104 0ZM325 622 191 244H461Z"/><path id="s71" d="M95 538V577Q95 664 122 694Q150 725 240 725H287V649H242Q206 649 196 636Q186 624 186 582V538H287V465H186V0H95V465H20V538Z"/><path id="s77" d="M163 725V0H72V725Z"/><path id="s70" d="M547 239H133Q135 157 184 112Q234 67 299 67Q407 67 446 156H540Q521 83 457 35Q393 -13 299 -13Q175 -13 105 66Q35 145 35 268Q35 394 109 470Q183 547 296 547Q417 547 486 458Q555 370 547 239ZM296 469Q231 469 186 431Q140 393 134 317H451Q449 378 407 424Q365 469 296 469Z"/><path id="s85" d="M98 538V673H189V538H291V465H189V146Q189 102 198 89Q208 76 245 76H291V0H225Q147 0 122 26Q98 52 98 135V465H13V538Z"/><path id="s80" d="M134 267Q134 166 180 116Q226 67 295 67Q363 67 410 118Q456 169 456 267Q456 368 410 418Q364 467 295 467Q226 467 180 418Q134 370 134 267ZM114 475Q191 547 295 547Q399 547 476 475Q553 403 553 267Q553 131 476 59Q399 -13 295 -13Q191 -13 114 59Q37 131 37 267Q37 403 114 475Z"/><path id="s66" d="M411 225V259Q274 246 208 221Q141 196 141 144Q141 105 169 82Q197 59 245 59Q317 59 364 98Q411 137 411 225ZM225 -13Q146 -13 93 28Q40 70 40 142Q40 188 64 221Q89 254 140 276Q192 297 253 309Q314 321 404 331V344Q404 475 282 475Q226 475 194 447Q162 419 159 368H65Q71 451 134 500Q198 549 281 549Q392 549 444 495Q496 441 495 327L494 203Q493 72 508 0H416Q410 39 409 74Q358 -13 225 -13Z"/><path id="s72" d="M434 453V538H525V72Q525 -61 474 -117Q412 -188 288 -188Q195 -188 138 -146Q80 -104 67 -23H164Q183 -108 289 -108Q362 -108 399 -68Q417 -48 426 -24Q434 1 434 51V102Q380 9 263 9Q169 9 102 82Q35 154 35 278Q35 402 102 474Q169 547 263 547Q380 547 434 453ZM438 278Q438 374 394 422Q351 469 286 469Q218 469 176 418Q134 368 134 278Q134 187 176 136Q218 86 286 86Q352 86 395 134Q438 181 438 278Z"/><path id="s79" d="M163 538V457Q218 547 337 547Q514 547 514 340V0H423V313Q423 387 400 428Q376 468 305 468Q238 468 200 423Q163 378 163 292V0H72V538Z"/><path id="s84" d="M475 381H380Q359 470 253 470Q208 470 174 453Q140 436 140 402Q140 371 160 354Q181 338 222 329L298 314Q383 298 432 262Q482 225 482 154Q482 76 420 32Q358 -13 263 -13Q163 -13 102 42Q41 97 32 174H128Q152 64 265 64Q319 64 354 86Q390 107 390 144Q390 182 361 202Q332 222 281 233L201 249Q133 264 90 297Q48 330 48 398Q48 467 110 508Q171 548 263 548Q350 548 406 504Q462 459 475 381Z"/><path id="s88" d="M206 140 313 538H407L514 140L617 538H715L560 0H477L358 433L243 0H160L5 538H103Z"/><path id="s83" d="M340 540V443Q315 447 289 447Q225 447 194 408Q163 370 163 282V0H72V538H161V444Q202 536 313 541Q329 541 340 540Z"/><path id="s76" d="M72 725H163V296L380 538H492L287 315L520 0H409L226 248L163 180V0H72Z"/><path id="s46" d="M496 0H388L188 632V0H86V725H257L442 121L627 725H798V0H696V632Z"/><path id="s68" d="M295 547Q388 547 448 490Q509 433 520 358H428Q418 406 380 436Q342 467 289 467Q224 467 179 416Q134 365 134 269Q134 172 179 120Q224 67 289 67Q344 67 383 98Q422 130 432 175H526Q511 97 444 42Q378 -13 286 -13Q171 -13 103 65Q35 143 35 268Q35 390 106 468Q177 547 295 547Z"/><path id="s73" d="M163 725V457Q218 547 337 547Q514 547 514 340V0H423V313Q423 387 400 428Q376 468 305 468Q238 468 200 423Q163 378 163 292V0H72V725Z"/><path id="s69" d="M441 453V725H532V0H441V81Q387 -13 265 -13Q168 -13 102 62Q35 138 35 267Q35 395 102 471Q168 547 265 547Q387 547 441 453ZM288 469Q217 469 176 416Q134 362 134 267Q134 172 176 118Q217 65 288 65Q354 65 400 116Q445 167 445 267Q445 367 400 418Q354 469 288 469Z"/><path id="s27" d="M180 423H65V538H180ZM180 0H65V115H180Z"/><path id="s78" d="M163 292V0H72V538H163V457Q218 547 325 547Q442 547 480 452Q541 547 661 547Q835 547 835 340V0H744V313Q744 386 720 427Q697 468 629 468Q569 468 534 422Q499 377 499 292V0H408V313Q408 386 384 427Q361 468 293 468Q233 468 198 422Q163 377 163 292Z"/><path id="s74" d="M72 538H163V0H72ZM72 725H163V615H72Z"/><path id="s13" d="M65 0V115H180V-8L119 -139H61L114 0Z"/><path id="s86" d="M405 0V77Q350 -13 236 -13Q64 -13 64 194V538H155V221Q155 147 178 106Q200 66 268 66Q334 66 370 111Q405 156 405 242V538H496V0Z"/><path id="s67" d="M316 65Q387 65 428 118Q470 172 470 267Q470 362 428 416Q387 469 316 469Q250 469 204 418Q159 367 159 267Q159 167 204 116Q250 65 316 65ZM72 725H163V453Q217 547 339 547Q436 547 502 471Q569 395 569 267Q569 138 502 62Q436 -13 339 -13Q217 -13 163 81V0H72Z"/><path id="s81" d="M72 538H163V453Q217 547 339 547Q436 547 502 471Q569 395 569 267Q569 138 502 62Q436 -13 339 -13Q217 -13 163 81V-175H72ZM316 65Q387 65 428 118Q470 172 470 267Q470 362 428 416Q387 469 316 469Q250 469 204 418Q159 367 159 267Q159 167 204 116Q250 65 316 65Z"/><path id="s90" d="M371 538H466L274 -23Q252 -86 234 -116Q215 -145 181 -160Q147 -175 87 -175H40V-99H77Q128 -99 150 -84Q173 -69 190 -11L194 0L0 538H101L238 123Z"/><path id="s87" d="M101 538 247 126 393 538H487L284 0H203L0 538Z"/><path id="s15" d="M180 0H65V115H180Z"/><path id="s49" d="M86 725H313Q460 725 537 678Q614 631 614 506Q614 440 592 396Q571 352 529 328Q487 305 436 296Q384 287 313 287H188V0H86ZM321 639H188V376H321Q368 376 397 380Q426 384 454 396Q483 409 496 436Q510 463 510 506Q510 549 496 576Q483 604 455 617Q427 630 396 634Q366 639 321 639Z"/><linearGradient id="tile" x1="0" y1="0" x2="0" y2="1"><stop offset="0" stop-color="#0e1819"/><stop offset="1" stop-color="#05090a"/></linearGradient><linearGradient id="tile-rim" x1="0" y1="0" x2="0" y2="1"><stop offset="0" stop-color="#fff" stop-opacity=".16"/><stop offset=".35" stop-color="#fff" stop-opacity=".07"/><stop offset="1" stop-color="#fff" stop-opacity=".05"/></linearGradient><path id="nm378" d="M318 -14C511 -14 592 147 592 345C592 543 511 705 318 705C125 705 43 543 43 345C43 147 125 -14 318 -14ZM318 79C193 79 156 203 156 345C156 487 193 612 318 612C442 612 479 487 479 345C479 203 442 79 318 79Z"/><path id="nm441" d="M154 0V109H45V0Z"/><path id="nm379" d="M158 0H266V691H180C171 608 135 571 13 568V480C75 480 128 485 158 513Z"/><path id="s38" d="M86 0V725H578V637H188V417H555V329H188V88H578V0Z"/><path id="s40" d="M388 738Q502 738 584 678Q666 618 688 514H589Q570 578 518 615Q467 652 383 652Q283 652 219 576Q155 500 155 364Q155 229 218 151Q281 73 383 73Q422 73 458 82Q493 91 526 112Q558 132 578 170Q597 209 597 263V282H405V370H693V0H613L608 91Q543 -13 379 -13Q226 -13 138 92Q51 196 51 364Q51 532 143 635Q235 738 388 738Z"/><path id="s8" d="M27 725H129L109 485H47Z"/><path id="s48" d="M222 576Q155 499 155 363Q155 227 222 150Q288 73 391 73Q494 73 560 150Q627 227 627 363Q627 499 560 576Q494 652 391 652Q288 652 222 576ZM638 634Q731 529 731 363Q731 197 638 92Q546 -13 391 -13Q236 -13 144 92Q51 197 51 363Q51 529 144 634Q236 738 391 738Q546 738 638 634Z"/><path id="s52" d="M56 540Q56 605 98 652Q140 699 198 718Q255 738 318 738Q423 738 498 688Q572 639 593 540H494Q477 598 426 625Q375 652 314 652Q260 652 210 626Q160 600 160 546Q160 461 278 435L362 416Q401 408 430 399Q460 390 495 373Q530 356 552 335Q575 314 590 280Q606 246 606 204Q606 103 526 45Q445 -13 330 -13Q203 -13 124 51Q46 115 32 225H132Q161 73 332 73Q412 73 456 106Q501 140 501 195Q501 249 461 277Q421 305 345 323L255 342Q169 361 112 409Q56 457 56 540Z"/><path id="s89" d="M494 538 311 281 512 0H403L257 205L112 0H8L206 277L20 538H129L260 353L392 538Z"/><path id="s75" d="M72 -29V538H163V-27Q163 -113 138 -144Q112 -175 36 -175H-10V-99H16Q51 -99 62 -86Q72 -72 72 -29ZM72 725H163V615H72Z"/><path id="n47" d="M137 0V1464H362L1094 258H1098V1464H1282V0H1057L326 1202H322V0Z"/><path id="n87" d="M4 1044H182L471 164H473L762 1044H940L565 0H379Z"/><linearGradient id="field" x1="0" y1="0" x2=".6" y2="1"><stop offset="0" stop-color="#004c53"/><stop offset="0.45" stop-color="#004046"/><stop offset="1" stop-color="#002d31"/></linearGradient><path id="n68" d="M854 668Q851 714 834 758Q816 802 782 842Q749 882 692 906Q634 930 559 930Q487 930 428 906Q370 883 332 844Q293 804 266 750Q240 697 228 640Q217 583 217 522Q217 445 236 375Q255 305 294 246Q333 186 402 150Q470 115 559 115Q635 115 692 139Q750 163 783 204Q816 244 834 290Q851 335 854 385H1018Q1007 205 879 88Q751 -29 559 -29Q331 -29 192 123Q53 275 53 522Q53 769 192 921Q331 1073 559 1073Q749 1073 874 960Q999 846 1018 668Z"/><path id="n14" d="M78 604H627V440H78Z"/><path id="n13" d="M213 -12Q163 -28 126 0Q90 27 90 92Q90 148 122 180Q153 211 201 211Q257 211 286 168Q315 125 315 51Q315 6 305 -40Q295 -86 274 -134Q252 -181 210 -216Q168 -250 111 -260V-158Q158 -148 186 -108Q213 -69 213 -12Z"/><path id="n67" d="M608 1073Q706 1073 792 1035Q878 997 942 927Q1005 857 1042 752Q1079 648 1079 522Q1079 396 1042 292Q1005 187 942 117Q878 47 792 9Q706 -29 608 -29Q401 -29 281 129H276V0H113V1464H276V909H281Q392 1073 608 1073ZM592 115Q695 115 770 175Q845 235 880 326Q915 416 915 522Q915 628 880 719Q845 810 770 870Q695 930 592 930Q447 930 362 819Q276 708 276 522Q276 337 361 226Q446 115 592 115Z"/><path id="s53" d="M236 0V637H0V725H574V637H338V0Z"/><path id="s36" d="M595 231H694Q671 114 586 50Q501 -13 380 -13Q227 -13 139 92Q51 196 51 364Q51 532 143 635Q235 738 388 738Q502 738 584 674Q666 609 690 494H591Q575 565 520 608Q466 652 383 652Q283 652 219 576Q155 500 155 364Q155 228 219 150Q283 73 386 73Q470 73 524 116Q577 158 595 231Z"/><path id="s42" d="M188 725V0H86V725Z"/><path id="s37" d="M575 363Q575 434 558 486Q541 538 515 567Q489 596 448 612Q407 629 370 634Q332 639 281 639H188V86H281Q332 86 370 91Q407 96 448 112Q489 129 515 158Q541 188 558 240Q575 291 575 363ZM86 725H284Q374 725 443 706Q512 688 566 648Q621 607 650 535Q679 463 679 363Q679 168 574 84Q470 0 284 0H86Z"/><path id="nm85" d="M340 -14C519 -14 602 78 602 201C602 352 472 385 334 420C242 443 167 460 167 540C167 602 213 635 303 635C407 635 456 588 468 502H582C571 646 465 729 302 729C148 729 52 658 52 534C52 398 175 362 287 332C417 299 487 286 487 195C487 130 452 80 337 80C203 80 146 145 138 241H24C32 80 159 -14 340 -14Z"/><path id="nm219" d="M391 197C391 120 337 69 253 69C179 69 149 115 149 184V510H51V157C51 40 127 -14 221 -14C309 -14 362 25 389 64H391V0H489V510H391Z"/><path id="nm134" d="M312 525C232 525 183 486 155 450H153V715H55V0H153V63H155C183 22 232 -14 312 -14C442 -14 541 87 541 255C541 423 442 525 312 525ZM296 67C208 67 154 140 154 255C154 371 208 443 296 443C392 443 438 355 438 255C438 155 392 67 296 67Z"/><path id="nm207" d="M256 -14C390 -14 466 46 466 145C466 259 364 286 270 308C198 324 141 329 141 382C141 420 169 446 235 446C320 446 341 401 348 362H447C440 450 373 525 233 525C110 525 39 466 39 378C39 272 141 246 230 225C296 211 364 204 364 140C364 103 341 65 255 65C160 65 124 111 120 170H21C24 66 101 -14 256 -14Z"/><path id="nm135" d="M279 -15C410 -15 501 72 508 189H407C402 131 373 67 279 67C170 67 130 159 130 255C130 351 170 444 279 444C372 444 402 378 407 325H508C496 440 409 525 278 525C127 525 28 415 28 255C28 95 127 -15 279 -15Z"/><path id="nm203" d="M292 522C223 522 182 477 155 413H153V510H55V0H153V264C153 361 217 428 306 428C318 428 327 427 339 425V519C324 521 310 522 292 522Z"/><path id="nm163" d="M160 601V707H49V601ZM153 0V510H55V0Z"/><path id="nm200" d="M312 525C232 525 183 486 155 450H153V510H55V-177H153V63H155C183 22 232 -14 312 -14C442 -14 541 87 541 255C541 423 442 525 312 525ZM296 67C208 67 154 140 154 255C154 371 208 443 296 443C392 443 438 355 438 255C438 155 392 67 296 67Z"/><path id="nm214" d="M243 75C201 75 186 87 186 141V429H284V510H186V674H88V510H14V429H88V144C88 26 139 -6 223 -6C244 -6 260 -5 285 0V79C268 76 260 75 243 75Z"/><path id="nm190" d="M283 -15C442 -15 538 96 538 256C538 415 442 526 284 526C124 526 28 414 28 255C28 95 124 -15 283 -15ZM284 66C178 66 130 149 130 255C130 362 178 444 284 444C388 444 436 362 436 255C436 149 388 66 284 66Z"/><path id="nm184" d="M323 525C235 525 182 485 155 446H153V510H55V0H153V313C153 390 207 441 291 441C365 441 395 395 395 327V0H493V354C493 471 417 525 323 525Z"/><path id="nm123" d="M196 -14C279 -14 337 19 370 72H372C378 14 404 -5 453 -5C469 -5 486 -3 503 1V61C497 60 494 60 491 60C472 60 467 79 467 116V350C467 482 383 526 278 526C122 526 58 449 53 351H153C158 419 185 447 274 447C349 447 371 416 371 379C371 329 322 319 242 304C115 280 29 246 29 132C29 45 94 -14 196 -14ZM218 65C157 65 131 91 131 139C131 192 169 217 259 235C311 246 355 257 371 272V199C371 110 306 65 218 65Z"/><path id="nm21" d="M345 0C543 0 661 127 661 357C661 587 541 715 343 715H71V0ZM181 95V620H338C504 620 547 495 547 357C547 219 504 95 338 95Z"/><path id="nm145" d="M523 266C523 424 436 526 281 526C125 526 29 416 29 256C29 100 119 -15 281 -15C415 -15 490 59 517 157H417C408 123 373 65 283 65C182 65 132 144 130 229H522C523 237 523 252 523 266ZM130 306C136 390 196 446 278 446C365 446 421 386 421 306Z"/><path id="nm230" d="M299 0 481 510H379L247 101H246L112 510H7L189 0Z"/><path id="nm458" d="M310 208V301H42V208Z"/><path id="nm183" d="M610 525C532 525 480 485 443 436H441C421 493 377 525 306 525C229 525 182 485 155 446H153V510H55V0H153V313C153 390 199 441 272 441C347 441 361 395 361 327V0H459V313C459 390 505 441 578 441C653 441 667 395 667 327V0H765V354C765 463 713 525 610 525Z"/><path id="nm237" d="M121 -179C200 -179 249 -138 298 -12L500 510H397L257 120H255L106 510H-1L205 5C185 -75 139 -95 100 -95C84 -95 75 -94 58 -92V-172C84 -177 99 -179 121 -179Z"/><path id="nm155" d="M415 450H413C385 486 338 525 256 525C129 525 31 439 31 275C31 112 129 26 256 26C338 26 385 62 413 103H415V34C415 -62 367 -103 274 -103C191 -103 157 -67 147 -21H45C55 -113 128 -183 274 -183C420 -183 513 -114 513 40V510H415ZM274 107C178 107 133 179 133 275C133 371 178 443 274 443C362 443 414 387 414 275C414 164 362 107 274 107Z"/><path id="nm141" d="M417 448H415C387 488 338 525 258 525C128 525 29 423 29 255C29 87 128 -14 258 -14C338 -14 387 24 415 60H417V0H515V715H417ZM274 67C178 67 131 155 131 255C131 355 178 443 274 443C362 443 416 371 416 255C416 140 362 67 274 67Z"/><path id="s44" d="M188 725V360L515 725H642L371 429L673 0H551L302 354L188 228V0H86V725Z"/><path id="nm61" d="M179 0V555H181L378 0H469L666 555H668V0H776V715H631L424 153H422L216 715H71V0Z"/><path id="nm231" d="M268 0 378 393H380L490 0H591L749 510H647L538 115H536L430 510H331L225 115H223L115 510H9L167 0Z"/><path id="nm178" d="M153 0V715H55V0Z"/><path id="s41" d="M569 725H671V0H569V329H188V0H86V725H188V417H569Z"/><path id="nm15" d="M370 -14C550 -14 662 101 678 260H563C556 173 507 81 369 81C211 81 151 215 151 358C151 500 211 634 369 634C506 634 550 542 563 472H678C661 615 550 729 371 729C168 729 36 573 36 357C36 142 167 -14 370 -14Z"/><path id="nm175" d="M510 0 293 323 489 510H376L153 294V715H55V0H153V190L227 261L394 0Z"/><path id="nm34" d="M181 0V310H493V405H181V620H567V715H71V0Z"/><path id="s82" d="M441 453V538H532V-175H441V81Q387 -13 265 -13Q168 -13 102 62Q35 138 35 267Q35 395 102 471Q168 547 265 547Q387 547 441 453ZM288 469Q217 469 176 416Q134 362 134 267Q134 172 176 118Q217 65 288 65Q354 65 400 116Q445 167 445 267Q445 367 400 418Q354 469 288 469Z"/><path id="n42" d="M141 1464H326V0H141Z"/><path id="n89" d="M47 1044H242L512 645H516L786 1044H981L612 535L1018 0H823L516 426H512L207 0H12L416 535Z"/><path id="s95" d="M452 286Q480 286 499 304Q518 323 521 355H606Q601 288 560 248Q519 207 452 207Q409 207 334 241Q258 275 226 275Q197 275 178 257Q159 239 157 207H72Q76 274 117 314Q158 355 226 355Q278 355 352 320Q426 286 452 286Z"/><path id="s16" d="M91 0H0L285 725H377Z"/><path id="n49" d="M137 0V1464H719Q823 1464 907 1440Q991 1416 1056 1366Q1122 1317 1158 1234Q1194 1150 1194 1038Q1194 926 1158 842Q1122 759 1056 710Q991 660 907 636Q823 612 719 612H322V0ZM322 1300V776H739Q876 776 943 840Q1010 905 1010 1038Q1010 1171 943 1236Q876 1300 739 1300Z"/><path id="n56" d="M29 1464H223L502 264H506L834 1464H1038L1366 264H1370L1649 1464H1843L1481 0H1276L938 1255H934L596 0H391Z"/><path id="n76" d="M113 1464H276V596L756 1044H961L553 657L1004 0H809L438 561L276 412V0H113Z"/><path id="n81" d="M612 1073Q709 1073 794 1035Q879 997 942 927Q1006 857 1042 752Q1079 648 1079 522Q1079 396 1042 292Q1006 187 942 117Q879 47 794 9Q709 -29 612 -29Q392 -29 281 135H276V-352H113V1044H276V915H281Q401 1073 612 1073ZM592 115Q695 115 770 175Q845 235 880 326Q915 416 915 522Q915 628 880 719Q845 810 770 870Q695 930 592 930Q447 930 362 819Q276 708 276 522Q276 337 361 226Q446 115 592 115Z"/><path id="s45" d="M188 725V88H571V0H86V725Z"/><path id="n48" d="M1174 70Q1010 -29 799 -29Q588 -29 424 70Q260 168 171 341Q82 514 82 733Q82 952 171 1124Q260 1297 424 1395Q588 1493 799 1493Q1010 1493 1174 1395Q1338 1297 1427 1124Q1516 952 1516 733Q1516 514 1427 341Q1338 168 1174 70ZM799 135Q933 135 1037 184Q1141 232 1204 316Q1267 401 1299 506Q1331 612 1331 733Q1331 854 1299 960Q1267 1065 1204 1148Q1141 1232 1037 1280Q933 1329 799 1329Q691 1329 602 1297Q513 1265 452 1210Q390 1155 348 1079Q305 1003 286 916Q266 829 266 733Q266 637 286 550Q305 463 348 386Q390 310 452 254Q513 199 602 167Q691 135 799 135Z"/><path id="n52" d="M664 854Q754 832 800 820Q845 807 914 784Q984 760 1018 739Q1052 718 1096 683Q1140 648 1160 608Q1179 567 1194 510Q1208 453 1208 383Q1208 301 1177 228Q1146 156 1084 98Q1022 39 918 5Q814 -29 680 -29Q412 -29 236 109Q60 247 45 492H229Q237 414 266 351Q294 288 346 238Q399 189 484 162Q568 135 680 135Q858 135 941 204Q1024 274 1024 383Q1024 421 1020 451Q1015 481 1002 506Q988 532 973 550Q958 569 928 586Q899 604 871 616Q843 629 794 644Q745 658 702 669Q658 680 588 696Q532 709 492 720Q451 731 397 750Q343 769 306 790Q268 810 228 842Q187 874 162 910Q138 947 122 998Q106 1049 106 1108Q106 1284 238 1388Q369 1493 608 1493Q846 1493 994 1373Q1143 1253 1161 1030H977Q956 1180 867 1254Q778 1329 608 1329Q456 1329 374 1275Q291 1221 291 1128Q291 1074 308 1034Q326 994 352 970Q377 945 425 924Q473 903 515 892Q557 880 626 863Q651 857 664 854Z"/><path id="n55" d="M20 1464H215L633 184H635L1053 1464H1247L735 0H532Z"/><path id="n46" d="M137 0V1464H389L848 248H852L1311 1464H1563V0H1378V1204H1374L932 0H768L326 1204H322V0Z"/><path id="n59" d="M102 1464H1180V1300L287 168V164H1200V0H61V164L954 1296V1300H102Z"/><path id="n90" d="M997 1044 551 -86Q507 -196 478 -238Q400 -351 260 -352Q188 -352 121 -332V-209H145Q219 -216 267 -204Q315 -193 354 -152Q378 -126 394 -92Q410 -59 416 -11Q421 37 399 86L4 1044H188L508 193H512L813 1044Z"/><path id="s17" d="M515 363Q515 510 466 586Q417 662 330 662Q242 662 194 586Q145 511 145 363Q145 214 194 138Q242 63 330 63Q418 63 466 138Q515 214 515 363ZM542 639Q612 540 612 363Q612 186 542 86Q471 -13 330 -13Q189 -13 118 86Q48 186 48 363Q48 540 118 639Q189 738 330 738Q471 738 542 639Z"/><path id="s18" d="M271 0H180V567H12V629Q95 631 138 650Q181 669 209 725H271Z"/><path id="s28" d="M65 0V115H180V-8L119 -139H61L114 0ZM180 423H65V538H180Z"/></defs><g transform="translate(24 76.8) scale(0.02734 -0.02734)" fill="#f2f1ee"><use href="#n34" x="0"/><use href="#n72" x="1248"/><use href="#n70" x="2333"/><use href="#n79" x="3378"/><use href="#n85" x="4392"/><use href="#n84" x="4972"/><use href="#n72" x="6268"/><use href="#n80" x="7353"/><use href="#n85" x="8415"/><use href="#n71" x="9357"/><use href="#n66" x="9879"/><use href="#n84" x="10877"/><use href="#n85" x="11790"/><use href="#n15" x="12390"/></g><g transform="translate(24 138.4) scale(0.02734 -0.02734)" fill="#f2f1ee" fill-opacity="0.54"><use href="#n53" x="0"/><use href="#n73" x="1203"/><use href="#n70" x="2237"/><use href="#n85" x="3644"/><use href="#n80" x="4214"/><use href="#n80" x="5295"/><use href="#n77" x="6377"/><use href="#n84" x="6731"/><use href="#n66" x="8027"/><use href="#n83" x="9025"/><use href="#n80" x="9639"/><use href="#n86" x="10721"/><use href="#n79" x="11755"/><use href="#n69" x="12790"/><use href="#n85" x="14238"/><use href="#n73" x="14817"/><use href="#n70" x="15852"/><use href="#n78" x="16896"/><use href="#n69" x="18836"/><use href="#n74" x="19902"/><use href="#n69" x="20285"/><use href="#n79" x="21371"/><use href="#n8" x="22354"/><use href="#n85" x="22643"/><use href="#n15" x="23242"/></g><g transform="translate(24 197.8) scale(0.02700 -0.02700)" fill="#f2f1ee" fill-opacity="0.64"><use href="#s34" x="0"/><use href="#s71" x="897"/><use href="#s77" x="1210"/><use href="#s70" x="1445"/><use href="#s70" x="2031"/><use href="#s85" x="2612"/><use href="#s80" x="3174"/><use href="#s71" x="3769"/><use href="#s66" x="4319"/><use href="#s72" x="4878"/><use href="#s70" x="5475"/><use href="#s79" x="6056"/><use href="#s85" x="6634"/><use href="#s84" x="6959"/><use href="#s88" x="7721"/><use href="#s80" x="8436"/><use href="#s83" x="9026"/><use href="#s76" x="9381"/><use href="#s84" x="9881"/><use href="#s66" x="10643"/><use href="#s46" x="11439"/><use href="#s66" x="12323"/><use href="#s68" x="12882"/><use href="#s73" x="13676"/><use href="#s66" x="14254"/><use href="#s83" x="14813"/><use href="#s69" x="15158"/><use href="#s27" x="15762"/><use href="#s85" x="16244"/><use href="#s70" x="16564"/><use href="#s83" x="17145"/><use href="#s78" x="17500"/><use href="#s74" x="18399"/><use href="#s79" x="18634"/><use href="#s66" x="19212"/><use href="#s77" x="19771"/><use href="#s84" x="20006"/><use href="#s71" x="20768"/><use href="#s77" x="21081"/><use href="#s80" x="21316"/><use href="#s80" x="21914"/><use href="#s69" x="22512"/><use href="#s13" x="23116"/></g><g transform="translate(24 236.14) scale(0.02700 -0.02700)" fill="#f2f1ee" fill-opacity="0.64"><use href="#s84" x="0"/><use href="#s86" x="525"/><use href="#s67" x="1093"/><use href="#s84" x="1694"/><use href="#s68" x="2219"/><use href="#s83" x="2776"/><use href="#s74" x="3131"/><use href="#s81" x="3366"/><use href="#s85" x="3965"/><use href="#s74" x="4300"/><use href="#s80" x="4535"/><use href="#s79" x="5125"/><use href="#s84" x="5703"/><use href="#s83" x="6465"/><use href="#s86" x="6820"/><use href="#s79" x="7388"/><use href="#s69" x="8203"/><use href="#s83" x="8807"/><use href="#s90" x="9162"/><use href="#s13" x="9513"/><use href="#s69" x="9995"/><use href="#s70" x="10599"/><use href="#s87" x="11175"/><use href="#s84" x="11899"/><use href="#s70" x="12424"/><use href="#s83" x="13005"/><use href="#s87" x="13360"/><use href="#s70" x="13837"/><use href="#s83" x="14418"/><use href="#s84" x="14768"/><use href="#s70" x="15530"/><use href="#s66" x="16106"/><use href="#s85" x="16665"/><use href="#s78" x="17227"/><use href="#s70" x="18126"/><use href="#s78" x="18707"/><use href="#s80" x="19606"/><use href="#s83" x="20196"/><use href="#s90" x="20551"/><use href="#s66" x="21254"/><use href="#s79" x="21813"/><use href="#s69" x="22391"/></g><g transform="translate(24 274.48) scale(0.02700 -0.02700)" fill="#f2f1ee" fill-opacity="0.64"><use href="#s67" x="0"/><use href="#s86" x="601"/><use href="#s74" x="1169"/><use href="#s77" x="1404"/><use href="#s69" x="1639"/><use href="#s84" x="2243"/><use href="#s81" x="3005"/><use href="#s74" x="3609"/><use href="#s77" x="3844"/><use href="#s70" x="4079"/><use href="#s86" x="4897"/><use href="#s81" x="5465"/><use href="#s15" x="6049"/><use href="#s49" x="6531"/><use href="#s80" x="7142"/><use href="#s69" x="7740"/><use href="#s74" x="8581"/><use href="#s84" x="8816"/><use href="#s78" x="9578"/><use href="#s66" x="10477"/><use href="#s69" x="11036"/><use href="#s70" x="11640"/><use href="#s71" x="12458"/><use href="#s80" x="12751"/><use href="#s83" x="13341"/><use href="#s85" x="13933"/><use href="#s73" x="14268"/><use href="#s66" x="14846"/><use href="#s85" x="15405"/><use href="#s77" x="15967"/><use href="#s80" x="16202"/><use href="#s66" x="16792"/><use href="#s69" x="17351"/><use href="#s15" x="17955"/></g><path d="M651.2 339.98c15.68 0 23.52 0 29.51 3.05a28 28 0 0 1 12.24 12.24c3.05 5.99 3.05 13.83 3.05 29.51L696 625.18c0 15.68 0 23.52 -3.05 29.51a28 28 0 0 1 -12.24 12.24c-5.99 3.05 -13.83 3.05 -29.51 3.05L68.8 669.98c-15.68 0 -23.52 0 -29.51 -3.05a28 28 0 0 1 -12.24 -12.24c-3.05 -5.99 -3.05 -13.83 -3.05 -29.51L24 384.78c0 -15.68 0 -23.52 3.05 -29.51a28 28 0 0 1 12.24 -12.24c5.99 -3.05 13.83 -3.05 29.51 -3.05Z" fill="url(#tile)"/><path d="M651.5 340.48c15.4 0 23.1 0 28.98 3a27.5 27.5 0 0 1 12.02 12.02c3 5.88 3 13.58 3 28.98L695.5 625.48c0 15.4 0 23.1 -3 28.98a27.5 27.5 0 0 1 -12.02 12.02c-5.88 3 -13.58 3 -28.98 3L68.5 669.48c-15.4 0 -23.1 0 -28.98 -3a27.5 27.5 0 0 1 -12.02 -12.02c-3 -5.88 -3 -13.58 -3 -28.98L24.5 384.48c0 -15.4 0 -23.1 3 -28.98a27.5 27.5 0 0 1 12.02 -12.02c5.88 -3 13.58 -3 28.98 -3Z" fill="none" stroke="url(#tile-rim)"/><g transform="translate(60 375.98) scale(1.5000)" color="#65d0dc" fill="none"><path stroke="currentColor" stroke-linecap="round" stroke-linejoin="round" stroke-width="1.5" d="M7.25 7.75 9 9.5l-1.75 1.75m3.5 0h2m-7 9h12.5c1.1 0 2-.9 2-2V5.75c0-1.1-.9-2-2-2H5.75c-1.1 0-2 .9-2 2v12.5c0 1.1.9 2 2 2"/></g><path d="M643.38 377.36c0 0 0 0 0 0a16.62 16.62 0 0 1 16.62 16.62c0 0 0 0 0 0L660 393.98c0 0 0 0 0 0a16.62 16.62 0 0 1 -16.62 16.62c0 0 -0 0 -0 0L626.27 410.61c-0 0 -0 0 -0 0a16.62 16.62 0 0 1 -16.62 -16.62c0 0 0 -0 0 -0L609.65 393.98c0 -0 0 -0 0 -0a16.62 16.62 0 0 1 16.62 -16.62c0 0 0 0 0 0Z" fill="#ffffff" fill-opacity="0.12"/><g transform="translate(624.61 400.77) scale(0.01900 -0.01900)" fill="#f2f1ee" fill-opacity="0.64"><use href="#nm378" x="0"/><use href="#nm441" x="597"/><use href="#nm379" x="734"/></g><g transform="translate(60 554.48) scale(0.02500 -0.02500)" fill="#f2f1ee" fill-opacity="0.64"><use href="#s38" x="0"/><use href="#s66" x="613"/><use href="#s68" x="1167"/><use href="#s73" x="1719"/><use href="#s81" x="2524"/><use href="#s66" x="3123"/><use href="#s79" x="3677"/><use href="#s70" x="4250"/><use href="#s83" x="5058"/><use href="#s86" x="5408"/><use href="#s79" x="5971"/><use href="#s84" x="6544"/><use href="#s40" x="7296"/><use href="#s73" x="8061"/><use href="#s80" x="8634"/><use href="#s84" x="9219"/><use href="#s85" x="9739"/><use href="#s85" x="10059"/><use href="#s90" x="10379"/><use href="#s8" x="10840"/><use href="#s84" x="10991"/><use href="#s70" x="11743"/><use href="#s79" x="12319"/><use href="#s72" x="12892"/><use href="#s74" x="13484"/><use href="#s79" x="13714"/><use href="#s70" x="14287"/><use href="#s74" x="15095"/><use href="#s79" x="15325"/><use href="#s66" x="16130"/><use href="#s79" x="16916"/><use href="#s66" x="17489"/><use href="#s85" x="18043"/><use href="#s74" x="18373"/><use href="#s87" x="18603"/><use href="#s70" x="19075"/><use href="#s78" x="19883"/><use href="#s66" x="20777"/><use href="#s68" x="21331"/><use href="#s48" x="21883"/><use href="#s52" x="22655"/></g><g transform="translate(60 590.73) scale(0.02500 -0.02500)" fill="#f2f1ee" fill-opacity="0.64"><use href="#s87" x="0"/><use href="#s74" x="482"/><use href="#s70" x="712"/><use href="#s88" x="1285"/><use href="#s13" x="1940"/><use href="#s69" x="2412"/><use href="#s83" x="3011"/><use href="#s66" x="3341"/><use href="#s88" x="3895"/><use href="#s79" x="4610"/><use href="#s88" x="5415"/><use href="#s74" x="6130"/><use href="#s85" x="6360"/><use href="#s73" x="6690"/><use href="#s46" x="7495"/><use href="#s70" x="8374"/><use href="#s85" x="8950"/><use href="#s66" x="9270"/><use href="#s77" x="9824"/><use href="#s13" x="10054"/><use href="#s88" x="10526"/><use href="#s73" x="11241"/><use href="#s74" x="11814"/><use href="#s77" x="12044"/><use href="#s70" x="12274"/><use href="#s89" x="13082"/><use href="#s85" x="13597"/><use href="#s70" x="13912"/><use href="#s83" x="14488"/><use href="#s78" x="14838"/><use href="#s15" x="15740"/><use href="#s75" x="15980"/><use href="#s84" x="16210"/><use href="#s84" x="16962"/><use href="#s85" x="17482"/><use href="#s66" x="17802"/><use href="#s90" x="18351"/><use href="#s84" x="18809"/><use href="#s67" x="19561"/><use href="#s70" x="20165"/><use href="#s73" x="20741"/><use href="#s74" x="21314"/><use href="#s79" x="21544"/><use href="#s69" x="22117"/></g><g transform="translate(60 626.98) scale(0.02500 -0.02500)" fill="#f2f1ee" fill-opacity="0.64"><use href="#s66" x="0"/><use href="#s84" x="554"/><use href="#s85" x="1306"/><use href="#s73" x="1636"/><use href="#s70" x="2209"/><use href="#s78" x="3017"/><use href="#s80" x="3911"/><use href="#s69" x="4504"/><use href="#s70" x="5103"/><use href="#s77" x="5679"/><use href="#s15" x="5909"/></g><g transform="translate(60 503.11) scale(0.01758 -0.01758)" fill="#f2f1ee"><use href="#n47" x="0"/><use href="#n66" x="1394"/><use href="#n85" x="2394"/><use href="#n74" x="2995"/><use href="#n87" x="3401"/><use href="#n70" x="4300"/><use href="#n85" x="5751"/><use href="#n70" x="6342"/><use href="#n83" x="7409"/><use href="#n78" x="8086"/><use href="#n74" x="9686"/><use href="#n79" x="10091"/><use href="#n66" x="11148"/><use href="#n77" x="12167"/></g><path d="M651.2 689.98c15.68 0 23.52 0 29.51 3.05a28 28 0 0 1 12.24 12.24c3.05 5.99 3.05 13.83 3.05 29.51L696 1795.18c0 15.68 0 23.52 -3.05 29.51a28 28 0 0 1 -12.24 12.24c-5.99 3.05 -13.83 3.05 -29.51 3.05L68.8 1839.98c-15.68 0 -23.52 0 -29.51 -3.05a28 28 0 0 1 -12.24 -12.24c-3.05 -5.99 -3.05 -13.83 -3.05 -29.51L24 734.78c0 -15.68 0 -23.52 3.05 -29.51a28 28 0 0 1 12.24 -12.24c5.99 -3.05 13.83 -3.05 29.51 -3.05Z" fill="url(#field)"/><path d="M651.5 690.48c15.4 0 23.1 0 28.98 3a27.5 27.5 0 0 1 12.02 12.02c3 5.88 3 13.58 3 28.98L695.5 1795.48c0 15.4 0 23.1 -3 28.98a27.5 27.5 0 0 1 -12.02 12.02c-5.88 3 -13.58 3 -28.98 3L68.5 1839.48c-15.4 0 -23.1 0 -28.98 -3a27.5 27.5 0 0 1 -12.02 -12.02c-3 -5.88 -3 -13.58 -3 -28.98L24.5 734.48c0 -15.4 0 -23.1 3 -28.98a27.5 27.5 0 0 1 12.02 -12.02c5.88 -3 13.58 -3 28.98 -3Z" fill="none" stroke="#ffffff" stroke-opacity="0.12" stroke-width="1"/><path d="M634.38 738.98c0 0 0 0 0 0a16.62 16.62 0 0 1 16.62 16.62c0 0 0 0 0 0L651 755.61c0 0 0 0 0 0a16.62 16.62 0 0 1 -16.62 16.62c0 0 -0 0 -0 0L617.27 772.23c-0 0 -0 0 -0 0a16.62 16.62 0 0 1 -16.62 -16.62c0 0 0 -0 0 -0L600.65 755.61c0 -0 0 -0 0 -0a16.62 16.62 0 0 1 16.62 -16.62c0 0 0 0 0 0Z" fill="#fff" fill-opacity=".14"/><g transform="translate(615.61 762.4) scale(0.01900 -0.01900)" fill="#f2f1ee"><use href="#nm378" x="0"/><use href="#nm441" x="597"/><use href="#nm379" x="734"/></g><g transform="translate(69 770.18) scale(0.02148 -0.02148)" fill="#f2f1ee"><use href="#n68" x="0"/><use href="#n77" x="1017"/><use href="#n66" x="1373"/><use href="#n86" x="2372"/><use href="#n69" x="3408"/><use href="#n70" x="4495"/><use href="#n14" x="5541"/><use href="#n66" x="6200"/><use href="#n68" x="7199"/><use href="#n68" x="8215"/><use href="#n13" x="9232"/><use href="#n67" x="9956"/><use href="#n86" x="11043"/><use href="#n74" x="12079"/><use href="#n77" x="12444"/><use href="#n85" x="12800"/><use href="#n74" x="13745"/><use href="#n79" x="14130"/></g><g transform="translate(69 822.68) scale(0.02500 -0.02500)" fill="#f2f1ee" fill-opacity="0.64"><use href="#s53" x="0"/><use href="#s73" x="549"/><use href="#s70" x="1122"/><use href="#s84" x="1930"/><use href="#s85" x="2450"/><use href="#s86" x="2770"/><use href="#s69" x="3333"/><use href="#s74" x="3932"/><use href="#s80" x="4162"/><use href="#s8" x="4747"/><use href="#s84" x="4898"/><use href="#s85" x="5650"/><use href="#s80" x="5965"/><use href="#s80" x="6558"/><use href="#s77" x="7143"/><use href="#s76" x="7373"/><use href="#s74" x="7873"/><use href="#s85" x="8103"/><use href="#s71" x="8655"/><use href="#s80" x="8943"/><use href="#s83" x="9528"/><use href="#s83" x="10110"/><use href="#s86" x="10460"/><use href="#s79" x="11023"/><use href="#s79" x="11596"/><use href="#s74" x="12169"/><use href="#s79" x="12399"/><use href="#s72" x="12972"/><use href="#s78" x="13796"/><use href="#s66" x="14690"/><use href="#s79" x="15244"/><use href="#s90" x="15812"/><use href="#s36" x="16505"/><use href="#s77" x="17226"/><use href="#s66" x="17456"/><use href="#s86" x="18010"/><use href="#s69" x="18573"/><use href="#s70" x="19172"/><use href="#s36" x="19980"/><use href="#s80" x="20711"/><use href="#s69" x="21304"/><use href="#s70" x="21903"/></g><g transform="translate(69 858.93) scale(0.02500 -0.02500)" fill="#f2f1ee" fill-opacity="0.64"><use href="#s66" x="0"/><use href="#s72" x="554"/><use href="#s70" x="1146"/><use href="#s79" x="1722"/><use href="#s85" x="2295"/><use href="#s84" x="2615"/><use href="#s80" x="3367"/><use href="#s79" x="3952"/><use href="#s80" x="4757"/><use href="#s79" x="5342"/><use href="#s70" x="5915"/><use href="#s46" x="6723"/><use href="#s66" x="7602"/><use href="#s68" x="8156"/><use href="#s13" x="8688"/><use href="#s79" x="9160"/><use href="#s80" x="9733"/><use href="#s88" x="10313"/><use href="#s81" x="11260"/><use href="#s66" x="11859"/><use href="#s83" x="12413"/><use href="#s85" x="12763"/><use href="#s80" x="13315"/><use href="#s71" x="13905"/><use href="#s85" x="14445"/><use href="#s73" x="14775"/><use href="#s70" x="15348"/><use href="#s42" x="16156"/><use href="#s37" x="16425"/><use href="#s38" x="17150"/><use href="#s15" x="17758"/></g><path d="M69.0 948.7h582.0" stroke="#fff" stroke-opacity=".14"/><g transform="translate(69 969.98) scale(1.1979)" color="#f2f1ee" fill="none"><path stroke="currentColor" stroke-linecap="round" stroke-linejoin="round" stroke-width="1.5" d="m10.75 1.5 3.5 3.25L10.75 8m2.5 8-3.5 3.25 3.5 3.25"/><path stroke="currentColor" stroke-linecap="round" stroke-width="1.5" d="M10.75 19.25H14c4 0 7.25-3.25 7.25-7.25 0-2.18-.97-4.14-2.5-5.47m-5.5-1.78H10C6 4.75 2.75 8 2.75 12c0 2.19.97 4.14 2.5 5.47"/></g><g transform="translate(115.25 992.98) scale(0.02500 -0.02500)" fill="#f2f1ee"><use href="#nm85" x="0"/><use href="#nm219" x="630"/><use href="#nm134" x="1174"/><use href="#nm207" x="1744"/><use href="#nm135" x="2232"/><use href="#nm203" x="2763"/><use href="#nm163" x="3111"/><use href="#nm200" x="3319"/><use href="#nm214" x="3879"/><use href="#nm163" x="4190"/><use href="#nm190" x="4398"/><use href="#nm184" x="4964"/><use href="#nm203" x="5717"/><use href="#nm190" x="6044"/><use href="#nm214" x="6600"/><use href="#nm123" x="6911"/><use href="#nm214" x="7432"/><use href="#nm163" x="7743"/><use href="#nm190" x="7951"/><use href="#nm184" x="8517"/></g><g transform="translate(115.25 1027.48) scale(0.02300 -0.02300)" fill="#f2f1ee" fill-opacity="0.64"><use href="#s46" x="0"/><use href="#s80" x="879"/><use href="#s87" x="1454"/><use href="#s70" x="1926"/><use href="#s84" x="2504"/><use href="#s85" x="3256"/><use href="#s80" x="3571"/><use href="#s85" x="4388"/><use href="#s73" x="4718"/><use href="#s70" x="5291"/><use href="#s79" x="6099"/><use href="#s70" x="6672"/><use href="#s89" x="7236"/><use href="#s85" x="7751"/><use href="#s36" x="8303"/><use href="#s77" x="9024"/><use href="#s66" x="9254"/><use href="#s86" x="9808"/><use href="#s69" x="10371"/><use href="#s70" x="10970"/><use href="#s84" x="11778"/><use href="#s86" x="12298"/><use href="#s67" x="12861"/><use href="#s84" x="13457"/><use href="#s68" x="13977"/><use href="#s83" x="14529"/><use href="#s74" x="14879"/><use href="#s81" x="15109"/><use href="#s85" x="15703"/><use href="#s74" x="16033"/><use href="#s80" x="16263"/><use href="#s79" x="16848"/><use href="#s67" x="17653"/><use href="#s70" x="18257"/><use href="#s71" x="18838"/><use href="#s80" x="19126"/><use href="#s83" x="19711"/><use href="#s70" x="20051"/><use href="#s80" x="20859"/><use href="#s79" x="21444"/><use href="#s70" x="22017"/></g><g transform="translate(115.25 1060.83) scale(0.02300 -0.02300)" fill="#f2f1ee" fill-opacity="0.64"><use href="#s73" x="0"/><use href="#s74" x="573"/><use href="#s85" x="803"/><use href="#s84" x="1123"/><use href="#s74" x="1875"/><use href="#s85" x="2105"/><use href="#s84" x="2425"/><use href="#s77" x="3177"/><use href="#s74" x="3407"/><use href="#s78" x="3637"/><use href="#s74" x="4531"/><use href="#s85" x="4761"/><use href="#s15" x="5081"/></g><path d="M69.0 1095.3h582.0" stroke="#fff" stroke-opacity=".14"/><g transform="translate(69 1116.58) scale(1.1979)" color="#f2f1ee" fill="none"><path stroke="currentColor" stroke-linecap="square" stroke-linejoin="round" stroke-width="1.5" d="M20.25 6.94c0-.86-.55-1.62-1.37-1.9l-6.25-2.08c-.4-.14-.85-.14-1.26 0L5.12 5.04c-.82.28-1.37 1.04-1.37 1.9v4.97c0 4.97 4.25 7.34 8.25 9.5 4-2.16 8.25-4.53 8.25-9.5z"/></g><g transform="translate(115.25 1139.58) scale(0.02500 -0.02500)" fill="#f2f1ee"><use href="#nm21" x="0"/><use href="#nm145" x="697"/><use href="#nm230" x="1232"/><use href="#nm458" x="1700"/><use href="#nm207" x="2052"/><use href="#nm145" x="2540"/><use href="#nm203" x="3091"/><use href="#nm230" x="3439"/><use href="#nm145" x="3910"/><use href="#nm203" x="4461"/><use href="#nm183" x="4996"/><use href="#nm145" x="5813"/><use href="#nm183" x="6364"/><use href="#nm190" x="7181"/><use href="#nm203" x="7747"/><use href="#nm237" x="8097"/><use href="#nm155" x="8787"/><use href="#nm219" x="9354"/><use href="#nm123" x="9898"/><use href="#nm203" x="10429"/><use href="#nm141" x="10757"/></g><g transform="translate(115.25 1174.08) scale(0.02300 -0.02300)" fill="#f2f1ee" fill-opacity="0.64"><use href="#s44" x="0"/><use href="#s70" x="651"/><use href="#s70" x="1232"/><use href="#s81" x="1808"/><use href="#s84" x="2407"/><use href="#s85" x="3159"/><use href="#s73" x="3489"/><use href="#s70" x="4062"/><use href="#s66" x="4870"/><use href="#s72" x="5424"/><use href="#s70" x="6016"/><use href="#s79" x="6592"/><use href="#s85" x="7165"/><use href="#s84" x="7485"/><use href="#s8" x="8005"/><use href="#s69" x="8388"/><use href="#s70" x="8987"/><use href="#s87" x="9558"/><use href="#s84" x="10272"/><use href="#s70" x="10792"/><use href="#s83" x="11368"/><use href="#s87" x="11718"/><use href="#s70" x="12190"/><use href="#s83" x="12766"/><use href="#s84" x="13111"/><use href="#s71" x="13863"/><use href="#s83" x="14171"/><use href="#s80" x="14511"/><use href="#s78" x="15096"/><use href="#s70" x="16222"/><use href="#s66" x="16793"/><use href="#s85" x="17347"/><use href="#s74" x="17677"/><use href="#s79" x="17907"/><use href="#s72" x="18480"/></g><g transform="translate(115.25 1207.43) scale(0.02300 -0.02300)" fill="#f2f1ee" fill-opacity="0.64"><use href="#s90" x="0"/><use href="#s80" x="451"/><use href="#s86" x="1036"/><use href="#s83" x="1599"/><use href="#s78" x="2181"/><use href="#s70" x="3075"/><use href="#s78" x="3651"/><use href="#s80" x="4545"/><use href="#s83" x="5130"/><use href="#s90" x="5480"/><use href="#s15" x="5826"/></g><path d="M69.0 1241.9h582.0" stroke="#fff" stroke-opacity=".14"/><g transform="translate(69 1263.18) scale(1.1979)" color="#f2f1ee" fill="none"><path stroke="currentColor" stroke-linecap="round" stroke-linejoin="round" stroke-width="1.5" d="M7.75 5.25v-1.5M12 5.25v-1.5m4.25 1.5v-1.5m-8.5 16.5v-1.5m4.25 1.5v-1.5m4.25 1.5v-1.5m-7.5-3.5h6.5c.55 0 1-.45 1-1v-4.5c0-.55-.45-1-1-1h-6.5c-.55 0-1 .45-1 1v4.5c0 .55.45 1 1 1m-3 5h12.5c1.1 0 2-.9 2-2V5.75c0-1.1-.9-2-2-2H5.75c-1.1 0-2 .9-2 2v12.5c0 1.1.9 2 2 2"/></g><g transform="translate(115.25 1286.18) scale(0.02500 -0.02500)" fill="#f2f1ee"><use href="#nm61" x="0"/><use href="#nm145" x="835"/><use href="#nm183" x="1386"/><use href="#nm190" x="2203"/><use href="#nm203" x="2769"/><use href="#nm237" x="3119"/><use href="#nm458" x="3602"/><use href="#nm123" x="3954"/><use href="#nm231" x="4471"/><use href="#nm123" x="5214"/><use href="#nm203" x="5745"/><use href="#nm145" x="6072"/><use href="#nm134" x="6832"/><use href="#nm219" x="7402"/><use href="#nm163" x="7946"/><use href="#nm178" x="8154"/><use href="#nm141" x="8362"/><use href="#nm207" x="8932"/></g><g transform="translate(115.25 1320.68) scale(0.02300 -0.02300)" fill="#f2f1ee" fill-opacity="0.64"><use href="#s41" x="0"/><use href="#s80" x="752"/><use href="#s77" x="1337"/><use href="#s69" x="1567"/><use href="#s84" x="2166"/><use href="#s73" x="2918"/><use href="#s70" x="3491"/><use href="#s66" x="4062"/><use href="#s87" x="4611"/><use href="#s90" x="5101"/><use href="#s67" x="5794"/><use href="#s86" x="6390"/><use href="#s74" x="6953"/><use href="#s77" x="7183"/><use href="#s69" x="7413"/><use href="#s84" x="8012"/><use href="#s86" x="8764"/><use href="#s79" x="9327"/><use href="#s85" x="9900"/><use href="#s74" x="10230"/><use href="#s77" x="10460"/><use href="#s85" x="10922"/><use href="#s73" x="11252"/><use href="#s70" x="11825"/><use href="#s83" x="12401"/><use href="#s70" x="12741"/><use href="#s74" x="13549"/><use href="#s84" x="13779"/><use href="#s78" x="14531"/><use href="#s70" x="15425"/><use href="#s78" x="16001"/><use href="#s80" x="16895"/><use href="#s83" x="17480"/><use href="#s90" x="17830"/><use href="#s71" x="18523"/><use href="#s83" x="18831"/><use href="#s70" x="19171"/><use href="#s70" x="19752"/></g><g transform="translate(115.25 1354.03) scale(0.02300 -0.02300)" fill="#f2f1ee" fill-opacity="0.64"><use href="#s71" x="0"/><use href="#s80" x="288"/><use href="#s83" x="873"/><use href="#s85" x="1455"/><use href="#s73" x="1785"/><use href="#s70" x="2358"/><use href="#s78" x="2934"/><use href="#s15" x="3836"/></g><path d="M69.0 1388.5h582.0" stroke="#fff" stroke-opacity=".14"/><g transform="translate(69 1409.78) scale(1.1979)" color="#f2f1ee" fill="none"><path stroke="currentColor" stroke-linecap="square" stroke-linejoin="round" stroke-width="1.5" d="M11.38 8.76c-.96-.53-2.17-.18-2.71.78-.26.47-.52.93-.78 1.4l10.26 5.65c.26-.46.51-.92.77-1.38.54-.97.19-2.19-.78-2.72zm1.61.24 2.9-5.08c.63-1.1 2.04-1.5 3.16-.88s1.53 2.03.9 3.15l-2.86 5.14m-8.16.49c-1.7 1.99-3.62 2.59-6.18 2.05 1.03 6.82 12.87 11.26 13.9 2.56"/></g><g transform="translate(115.25 1432.78) scale(0.02500 -0.02500)" fill="#f2f1ee"><use href="#nm15" x="0"/><use href="#nm178" x="705"/><use href="#nm145" x="913"/><use href="#nm123" x="1464"/><use href="#nm184" x="1995"/><use href="#nm219" x="2539"/><use href="#nm200" x="3083"/></g><g transform="translate(115.25 1467.28) scale(0.02300 -0.02300)" fill="#f2f1ee" fill-opacity="0.64"><use href="#s36" x="0"/><use href="#s77" x="721"/><use href="#s70" x="951"/><use href="#s66" x="1522"/><use href="#s83" x="2076"/><use href="#s84" x="2421"/><use href="#s88" x="3173"/><use href="#s73" x="3888"/><use href="#s66" x="4461"/><use href="#s85" x="5015"/><use href="#s67" x="5567"/><use href="#s86" x="6163"/><use href="#s74" x="6726"/><use href="#s77" x="6956"/><use href="#s69" x="7186"/><use href="#s84" x="7785"/><use href="#s66" x="8537"/><use href="#s79" x="9091"/><use href="#s69" x="9664"/><use href="#s74" x="10495"/><use href="#s79" x="10725"/><use href="#s84" x="11298"/><use href="#s85" x="11818"/><use href="#s66" x="12138"/><use href="#s77" x="12692"/><use href="#s77" x="12922"/><use href="#s84" x="13152"/><use href="#s77" x="13904"/><use href="#s70" x="14134"/><use href="#s66" x="14705"/><use href="#s87" x="15254"/><use href="#s70" x="15726"/><use href="#s67" x="16534"/><use href="#s70" x="17138"/><use href="#s73" x="17714"/><use href="#s74" x="18287"/><use href="#s79" x="18517"/><use href="#s69" x="19090"/><use href="#s13" x="19689"/><use href="#s88" x="20161"/><use href="#s73" x="20876"/><use href="#s74" x="21449"/><use href="#s77" x="21679"/><use href="#s70" x="21909"/></g><g transform="translate(115.25 1500.63) scale(0.02300 -0.02300)" fill="#f2f1ee" fill-opacity="0.64"><use href="#s79" x="0"/><use href="#s80" x="573"/><use href="#s67" x="1158"/><use href="#s80" x="1762"/><use href="#s69" x="2355"/><use href="#s90" x="2954"/><use href="#s74" x="3647"/><use href="#s84" x="3877"/><use href="#s86" x="4629"/><use href="#s84" x="5192"/><use href="#s74" x="5712"/><use href="#s79" x="5942"/><use href="#s72" x="6515"/><use href="#s74" x="7339"/><use href="#s85" x="7569"/><use href="#s15" x="7889"/></g><path d="M69.0 1535.1h582.0" stroke="#fff" stroke-opacity=".14"/><g transform="translate(69 1556.38) scale(1.1979)" color="#f2f1ee" fill="none"><path stroke="currentColor" stroke-width="1.5" d="M4.75 8.75c0-.55.45-1 1-1h10.5c.55 0 1 .45 1 1v10.5c0 1.1-.9 2-2 2h-8.5c-1.1 0-2-.9-2-2zm12.5 1h1.25c1.52 0 2.75 1.23 2.75 2.75s-1.23 2.75-2.75 2.75h-1.25z"/><path stroke="currentColor" stroke-linecap="round" stroke-width="1.5" d="M11 5.25v-2.5m-4 2.5v-2.5m8 2.5v-2.5"/></g><g transform="translate(115.25 1579.38) scale(0.02500 -0.02500)" fill="#f2f1ee"><use href="#nm85" x="0"/><use href="#nm214" x="625"/><use href="#nm123" x="936"/><use href="#nm237" x="1451"/><use href="#nm123" x="2141"/><use href="#nm231" x="2658"/><use href="#nm123" x="3401"/><use href="#nm175" x="3932"/><use href="#nm145" x="4402"/></g><g transform="translate(115.25 1613.88) scale(0.02300 -0.02300)" fill="#f2f1ee" fill-opacity="0.64"><use href="#s44" x="0"/><use href="#s70" x="651"/><use href="#s70" x="1232"/><use href="#s81" x="1808"/><use href="#s84" x="2407"/><use href="#s85" x="3159"/><use href="#s73" x="3489"/><use href="#s70" x="4062"/><use href="#s46" x="4870"/><use href="#s66" x="5749"/><use href="#s68" x="6303"/><use href="#s66" x="7087"/><use href="#s88" x="7641"/><use href="#s66" x="8346"/><use href="#s76" x="8900"/><use href="#s70" x="9385"/><use href="#s86" x="10193"/><use href="#s79" x="10756"/><use href="#s85" x="11329"/><use href="#s74" x="11659"/><use href="#s77" x="11889"/><use href="#s90" x="12351"/><use href="#s80" x="12802"/><use href="#s86" x="13387"/><use href="#s84" x="14182"/><use href="#s66" x="14702"/><use href="#s90" x="15251"/><use href="#s84" x="15944"/><use href="#s80" x="16464"/><use href="#s13" x="17029"/><use href="#s77" x="17501"/><use href="#s74" x="17731"/><use href="#s69" x="17961"/></g><g transform="translate(115.25 1647.23) scale(0.02300 -0.02300)" fill="#f2f1ee" fill-opacity="0.64"><use href="#s68" x="0"/><use href="#s77" x="552"/><use href="#s80" x="782"/><use href="#s84" x="1367"/><use href="#s70" x="1887"/><use href="#s69" x="2468"/><use href="#s74" x="3299"/><use href="#s79" x="3529"/><use href="#s68" x="4102"/><use href="#s77" x="4654"/><use href="#s86" x="4884"/><use href="#s69" x="5447"/><use href="#s70" x="6046"/><use href="#s69" x="6627"/><use href="#s15" x="7226"/></g><path d="M69.0 1681.7h582.0" stroke="#fff" stroke-opacity=".14"/><g transform="translate(69 1702.98) scale(1.1979)" color="#f2f1ee" fill="none"><path stroke="currentColor" stroke-linecap="round" stroke-linejoin="round" stroke-width="1.5" d="M2.75 12h16.5c1.1 0 2-.9 2-2s-.9-2-2-2c-.62 0-1.17.28-1.53.72M2.75 7.75h8.5c1.1 0 2-.9 2-2s-.9-2-2-2c-.62 0-1.16.28-1.53.72M2.75 16.25h12.5c1.1 0 2 .9 2 2s-.9 2-2 2c-.68 0-1.28-.34-1.64-.86"/></g><g transform="translate(115.25 1725.98) scale(0.02500 -0.02500)" fill="#f2f1ee"><use href="#nm34" x="0"/><use href="#nm123" x="523"/><use href="#nm184" x="1054"/><use href="#nm135" x="1807"/><use href="#nm190" x="2338"/><use href="#nm184" x="2904"/><use href="#nm214" x="3443"/><use href="#nm203" x="3754"/><use href="#nm190" x="4081"/><use href="#nm178" x="4647"/></g><g transform="translate(115.25 1760.48) scale(0.02300 -0.02300)" fill="#f2f1ee" fill-opacity="0.64"><use href="#s52" x="0"/><use href="#s81" x="636"/><use href="#s74" x="1235"/><use href="#s79" x="1465"/><use href="#s84" x="2038"/><use href="#s85" x="2790"/><use href="#s73" x="3120"/><use href="#s70" x="3693"/><use href="#s71" x="4501"/><use href="#s66" x="4784"/><use href="#s79" x="5338"/><use href="#s84" x="5911"/><use href="#s86" x="6663"/><use href="#s81" x="7226"/><use href="#s67" x="8057"/><use href="#s70" x="8661"/><use href="#s71" x="9242"/><use href="#s80" x="9530"/><use href="#s83" x="10115"/><use href="#s70" x="10455"/><use href="#s85" x="11263"/><use href="#s73" x="11593"/><use href="#s70" x="12166"/><use href="#s68" x="12974"/><use href="#s73" x="13526"/><use href="#s74" x="14099"/><use href="#s81" x="14329"/><use href="#s72" x="15160"/><use href="#s70" x="15752"/><use href="#s85" x="16328"/><use href="#s84" x="16648"/><use href="#s73" x="17400"/><use href="#s80" x="17973"/><use href="#s85" x="18553"/><use href="#s15" x="18873"/></g><path d="M651.2 1859.98c15.68 0 23.52 0 29.51 3.05a28 28 0 0 1 12.24 12.24c3.05 5.99 3.05 13.83 3.05 29.51L696 2145.18c0 15.68 0 23.52 -3.05 29.51a28 28 0 0 1 -12.24 12.24c-5.99 3.05 -13.83 3.05 -29.51 3.05L68.8 2189.98c-15.68 0 -23.52 0 -29.51 -3.05a28 28 0 0 1 -12.24 -12.24c-3.05 -5.99 -3.05 -13.83 -3.05 -29.51L24 1904.78c0 -15.68 0 -23.52 3.05 -29.51a28 28 0 0 1 12.24 -12.24c5.99 -3.05 13.83 -3.05 29.51 -3.05Z" fill="url(#tile)"/><path d="M651.5 1860.48c15.4 0 23.1 0 28.98 3a27.5 27.5 0 0 1 12.02 12.02c3 5.88 3 13.58 3 28.98L695.5 2145.48c0 15.4 0 23.1 -3 28.98a27.5 27.5 0 0 1 -12.02 12.02c-5.88 3 -13.58 3 -28.98 3L68.5 2189.48c-15.4 0 -23.1 0 -28.98 -3a27.5 27.5 0 0 1 -12.02 -12.02c-3 -5.88 -3 -13.58 -3 -28.98L24.5 1904.48c0 -15.4 0 -23.1 3 -28.98a27.5 27.5 0 0 1 12.02 -12.02c5.88 -3 13.58 -3 28.98 -3Z" fill="none" stroke="url(#tile-rim)"/><g transform="translate(60 1895.98) scale(1.5000)" color="#65d0dc" fill="none"><path stroke="currentColor" stroke-linecap="round" stroke-linejoin="round" stroke-width="1.5" d="m20.25 20.25-4.12-4.12m0 0c1.3-1.32 2.12-3.13 2.12-5.13 0-4-3.25-7.25-7.25-7.25S3.75 7 3.75 11 7 18.25 11 18.25c2 0 3.81-.81 5.13-2.12"/></g><path d="M643.38 1897.36c0 0 0 0 0 0a16.62 16.62 0 0 1 16.62 16.62c0 0 0 0 0 0L660 1913.98c0 0 0 0 0 0a16.62 16.62 0 0 1 -16.62 16.62c0 0 -0 0 -0 0L582.94 1930.61c-0 0 -0 0 -0 0a16.62 16.62 0 0 1 -16.62 -16.62c0 0 0 -0 0 -0L566.31 1913.98c0 -0 0 -0 0 -0a16.62 16.62 0 0 1 16.62 -16.62c0 0 0 0 0 0Z" fill="#65d0dc" fill-opacity="0.16"/><g transform="translate(581.27 1920.77) scale(0.01900 -0.01900)" fill="#90e1ea"><use href="#nm15" x="0"/><use href="#nm190" x="694"/><use href="#nm183" x="1250"/><use href="#nm163" x="2057"/><use href="#nm184" x="2255"/><use href="#nm155" x="2789"/></g><g transform="translate(60 2074.48) scale(0.02500 -0.02500)" fill="#f2f1ee" fill-opacity="0.64"><use href="#s34" x="0"/><use href="#s79" x="887"/><use href="#s66" x="1460"/><use href="#s85" x="2014"/><use href="#s74" x="2344"/><use href="#s87" x="2574"/><use href="#s70" x="3046"/><use href="#s85" x="3854"/><use href="#s83" x="4174"/><use href="#s74" x="4524"/><use href="#s72" x="4754"/><use href="#s83" x="5346"/><use href="#s66" x="5676"/><use href="#s78" x="6230"/><use href="#s74" x="7356"/><use href="#s79" x="7586"/><use href="#s69" x="8159"/><use href="#s70" x="8758"/><use href="#s89" x="9322"/><use href="#s85" x="10069"/><use href="#s73" x="10399"/><use href="#s66" x="10972"/><use href="#s85" x="11526"/><use href="#s66" x="12078"/><use href="#s72" x="12632"/><use href="#s70" x="13224"/><use href="#s79" x="13800"/><use href="#s85" x="14373"/><use href="#s84" x="14693"/><use href="#s82" x="15445"/><use href="#s86" x="16044"/><use href="#s70" x="16607"/><use href="#s83" x="17183"/><use href="#s90" x="17533"/><use href="#s74" x="18226"/><use href="#s79" x="18456"/><use href="#s84" x="19029"/><use href="#s85" x="19549"/><use href="#s70" x="19864"/><use href="#s66" x="20435"/><use href="#s69" x="20989"/><use href="#s80" x="21820"/><use href="#s71" x="22410"/></g><g transform="translate(60 2110.73) scale(0.02500 -0.02500)" fill="#f2f1ee" fill-opacity="0.64"><use href="#s88" x="0"/><use href="#s66" x="705"/><use href="#s77" x="1259"/><use href="#s76" x="1489"/><use href="#s74" x="1989"/><use href="#s79" x="2219"/><use href="#s72" x="2792"/><use href="#s85" x="3616"/><use href="#s73" x="3946"/><use href="#s70" x="4519"/><use href="#s69" x="5327"/><use href="#s74" x="5926"/><use href="#s84" x="6156"/><use href="#s76" x="6676"/><use href="#s15" x="7196"/><use href="#s53" x="7668"/><use href="#s73" x="8217"/><use href="#s70" x="8790"/><use href="#s74" x="9366"/><use href="#s83" x="9596"/><use href="#s72" x="10178"/><use href="#s83" x="10770"/><use href="#s70" x="11110"/><use href="#s81" x="11686"/><use href="#s66" x="12517"/><use href="#s79" x="13071"/><use href="#s84" x="13644"/><use href="#s88" x="14164"/><use href="#s70" x="14874"/><use href="#s83" x="15450"/><use href="#s84" x="15795"/><use href="#s71" x="16547"/><use href="#s83" x="16855"/><use href="#s80" x="17195"/><use href="#s78" x="17780"/><use href="#s85" x="18906"/><use href="#s73" x="19236"/><use href="#s70" x="19809"/><use href="#s74" x="20617"/><use href="#s79" x="20847"/><use href="#s69" x="21420"/><use href="#s70" x="22019"/><use href="#s89" x="22583"/><use href="#s13" x="23098"/></g><g transform="translate(60 2146.98) scale(0.02500 -0.02500)" fill="#f2f1ee" fill-opacity="0.64"><use href="#s88" x="0"/><use href="#s74" x="715"/><use href="#s85" x="945"/><use href="#s73" x="1275"/><use href="#s83" x="2080"/><use href="#s74" x="2430"/><use href="#s81" x="2660"/><use href="#s72" x="3267"/><use href="#s83" x="3859"/><use href="#s70" x="4199"/><use href="#s81" x="4775"/><use href="#s66" x="5606"/><use href="#s84" x="6160"/><use href="#s85" x="6912"/><use href="#s73" x="7242"/><use href="#s70" x="7815"/><use href="#s71" x="8623"/><use href="#s66" x="8906"/><use href="#s77" x="9460"/><use href="#s77" x="9690"/><use href="#s67" x="9920"/><use href="#s66" x="10516"/><use href="#s68" x="11070"/><use href="#s76" x="11622"/><use href="#s15" x="12142"/></g><g transform="translate(60 2023.11) scale(0.01758 -0.01758)" fill="#f2f1ee"><use href="#n42" x="0"/><use href="#n79" x="441"/><use href="#n69" x="1498"/><use href="#n70" x="2605"/><use href="#n89" x="3621"/><use href="#n70" x="4554"/><use href="#n69" x="5621"/><use href="#n68" x="7112"/><use href="#n80" x="8150"/><use href="#n69" x="9253"/><use href="#n70" x="10361"/><use href="#n84" x="11812"/><use href="#n70" x="12787"/><use href="#n66" x="13853"/><use href="#n83" x="14873"/><use href="#n68" x="15509"/><use href="#n73" x="16547"/></g><path d="M651.2 2209.98c15.68 0 23.52 0 29.51 3.05a28 28 0 0 1 12.24 12.24c3.05 5.99 3.05 13.83 3.05 29.51L696 2495.18c0 15.68 0 23.52 -3.05 29.51a28 28 0 0 1 -12.24 12.24c-5.99 3.05 -13.83 3.05 -29.51 3.05L68.8 2539.98c-15.68 0 -23.52 0 -29.51 -3.05a28 28 0 0 1 -12.24 -12.24c-3.05 -5.99 -3.05 -13.83 -3.05 -29.51L24 2254.78c0 -15.68 0 -23.52 3.05 -29.51a28 28 0 0 1 12.24 -12.24c5.99 -3.05 13.83 -3.05 29.51 -3.05Z" fill="url(#tile)"/><path d="M651.5 2210.48c15.4 0 23.1 0 28.98 3a27.5 27.5 0 0 1 12.02 12.02c3 5.88 3 13.58 3 28.98L695.5 2495.48c0 15.4 0 23.1 -3 28.98a27.5 27.5 0 0 1 -12.02 12.02c-5.88 3 -13.58 3 -28.98 3L68.5 2539.48c-15.4 0 -23.1 0 -28.98 -3a27.5 27.5 0 0 1 -12.02 -12.02c-3 -5.88 -3 -13.58 -3 -28.98L24.5 2254.48c0 -15.4 0 -23.1 3 -28.98a27.5 27.5 0 0 1 12.02 -12.02c5.88 -3 13.58 -3 28.98 -3Z" fill="none" stroke="url(#tile-rim)"/><g transform="translate(60 2245.98) scale(1.5000)" color="#65d0dc" fill="none"><circle cx="6.5" cy="6" r="2.25" stroke="currentColor" stroke-linecap="round" stroke-linejoin="round" stroke-width="1.5"/><circle cx="6.5" cy="18" r="2.25" stroke="currentColor" stroke-linecap="round" stroke-linejoin="round" stroke-width="1.5"/><circle cx="17.5" cy="6" r="2.25" stroke="currentColor" stroke-linecap="round" stroke-linejoin="round" stroke-width="1.5"/><path stroke="currentColor" stroke-linecap="round" stroke-linejoin="round" stroke-width="1.5" d="M6.5 8.25v7.5m11-7.5V10c0 1.1-.9 2-2 2h-7c-1.1 0-2 .9-2 2v1.75"/></g><path d="M643.38 2247.36c0 0 0 0 0 0a16.62 16.62 0 0 1 16.62 16.62c0 0 0 0 0 0L660 2263.98c0 0 0 0 0 0a16.62 16.62 0 0 1 -16.62 16.62c0 0 -0 0 -0 0L582.94 2280.61c-0 0 -0 0 -0 0a16.62 16.62 0 0 1 -16.62 -16.62c0 0 0 -0 0 -0L566.31 2263.98c0 -0 0 -0 0 -0a16.62 16.62 0 0 1 16.62 -16.62c0 0 0 0 0 0Z" fill="#65d0dc" fill-opacity="0.16"/><g transform="translate(581.27 2270.77) scale(0.01900 -0.01900)" fill="#90e1ea"><use href="#nm15" x="0"/><use href="#nm190" x="694"/><use href="#nm183" x="1250"/><use href="#nm163" x="2057"/><use href="#nm184" x="2255"/><use href="#nm155" x="2789"/></g><g transform="translate(60 2424.48) scale(0.02500 -0.02500)" fill="#f2f1ee" fill-opacity="0.64"><use href="#s34" x="0"/><use href="#s78" x="887"/><use href="#s66" x="1781"/><use href="#s79" x="2335"/><use href="#s66" x="2908"/><use href="#s72" x="3462"/><use href="#s70" x="4054"/><use href="#s69" x="4635"/><use href="#s95" x="5466"/><use href="#s16" x="6139"/><use href="#s81" x="6491"/><use href="#s80" x="7098"/><use href="#s69" x="7691"/><use href="#s83" x="8522"/><use href="#s80" x="8862"/><use href="#s80" x="9455"/><use href="#s85" x="10035"/><use href="#s71" x="10587"/><use href="#s80" x="10875"/><use href="#s83" x="11460"/><use href="#s90" x="12042"/><use href="#s80" x="12493"/><use href="#s86" x="13078"/><use href="#s83" x="13641"/><use href="#s83" x="14223"/><use href="#s70" x="14563"/><use href="#s81" x="15139"/><use href="#s80" x="15746"/><use href="#s84" x="16331"/><use href="#s74" x="16851"/><use href="#s85" x="17081"/><use href="#s80" x="17396"/><use href="#s83" x="17981"/><use href="#s74" x="18331"/><use href="#s70" x="18561"/><use href="#s84" x="19139"/><use href="#s13" x="19649"/><use href="#s88" x="20121"/><use href="#s74" x="20836"/><use href="#s85" x="21066"/><use href="#s73" x="21396"/><use href="#s72" x="22201"/><use href="#s74" x="22793"/><use href="#s85" x="23023"/></g><g transform="translate(60 2460.73) scale(0.02500 -0.02500)" fill="#f2f1ee" fill-opacity="0.64"><use href="#s85" x="0"/><use href="#s86" x="320"/><use href="#s79" x="883"/><use href="#s70" x="1456"/><use href="#s69" x="2037"/><use href="#s71" x="2868"/><use href="#s80" x="3156"/><use href="#s83" x="3741"/><use href="#s78" x="4323"/><use href="#s66" x="5217"/><use href="#s79" x="5771"/><use href="#s90" x="6339"/><use href="#s88" x="7032"/><use href="#s80" x="7742"/><use href="#s83" x="8327"/><use href="#s76" x="8677"/><use href="#s85" x="9177"/><use href="#s83" x="9497"/><use href="#s70" x="9837"/><use href="#s70" x="10418"/><use href="#s84" x="10996"/><use href="#s66" x="11748"/><use href="#s79" x="12302"/><use href="#s69" x="12875"/><use href="#s85" x="13706"/><use href="#s73" x="14036"/><use href="#s70" x="14609"/><use href="#s88" x="15417"/><use href="#s80" x="16127"/><use href="#s83" x="16712"/><use href="#s76" x="17062"/><use href="#s85" x="17562"/><use href="#s83" x="17882"/><use href="#s70" x="18222"/><use href="#s70" x="18803"/><use href="#s84" x="19381"/></g><g transform="translate(60 2496.98) scale(0.02500 -0.02500)" fill="#f2f1ee" fill-opacity="0.64"><use href="#s76" x="0"/><use href="#s70" x="485"/><use href="#s81" x="1061"/><use href="#s85" x="1655"/><use href="#s85" x="2207"/><use href="#s74" x="2537"/><use href="#s69" x="2767"/><use href="#s90" x="3366"/><use href="#s15" x="3712"/></g><g transform="translate(60 2373.11) scale(0.01758 -0.01758)" fill="#f2f1ee"><use href="#n49" x="0"/><use href="#n80" x="1178"/><use href="#n69" x="2282"/><use href="#n56" x="3774"/><use href="#n80" x="5518"/><use href="#n83" x="6622"/><use href="#n76" x="7299"/><use href="#n84" x="8244"/><use href="#n81" x="9200"/><use href="#n66" x="10313"/><use href="#n68" x="11333"/><use href="#n70" x="12370"/></g><path d="M651.2 2559.98c15.68 0 23.52 0 29.51 3.05a28 28 0 0 1 12.24 12.24c3.05 5.99 3.05 13.83 3.05 29.51L696 2845.18c0 15.68 0 23.52 -3.05 29.51a28 28 0 0 1 -12.24 12.24c-5.99 3.05 -13.83 3.05 -29.51 3.05L68.8 2889.98c-15.68 0 -23.52 0 -29.51 -3.05a28 28 0 0 1 -12.24 -12.24c-3.05 -5.99 -3.05 -13.83 -3.05 -29.51L24 2604.78c0 -15.68 0 -23.52 3.05 -29.51a28 28 0 0 1 12.24 -12.24c5.99 -3.05 13.83 -3.05 29.51 -3.05Z" fill="url(#tile)"/><path d="M651.5 2560.48c15.4 0 23.1 0 28.98 3a27.5 27.5 0 0 1 12.02 12.02c3 5.88 3 13.58 3 28.98L695.5 2845.48c0 15.4 0 23.1 -3 28.98a27.5 27.5 0 0 1 -12.02 12.02c-5.88 3 -13.58 3 -28.98 3L68.5 2889.48c-15.4 0 -23.1 0 -28.98 -3a27.5 27.5 0 0 1 -12.02 -12.02c-3 -5.88 -3 -13.58 -3 -28.98L24.5 2604.48c0 -15.4 0 -23.1 3 -28.98a27.5 27.5 0 0 1 12.02 -12.02c5.88 -3 13.58 -3 28.98 -3Z" fill="none" stroke="url(#tile-rim)"/><g transform="translate(60 2595.98) scale(1.5000)" color="#65d0dc" fill="none"><path stroke="currentColor" stroke-linecap="square" stroke-linejoin="round" stroke-width="1.5" d="M2.75 6.75c0-1.1.9-2 2-2h14.5c1.1 0 2 .9 2 2V12H2.75zm0 5.25h18.5v5.25c0 1.1-.9 2-2 2H4.75c-1.1 0-2-.9-2-2z"/><path fill="currentColor" stroke="currentColor" stroke-width=".5" d="M6.5 14.88c.41 0 .75.33.75.74 0 .42-.34.76-.75.76s-.75-.34-.75-.75c0-.42.34-.76.75-.76Zm0-7.26c.41 0 .75.34.75.75 0 .42-.34.76-.75.76s-.75-.34-.75-.76c0-.4.34-.74.75-.74Z"/></g><path d="M643.38 2597.36c0 0 0 0 0 0a16.62 16.62 0 0 1 16.62 16.62c0 0 0 0 0 0L660 2613.98c0 0 0 0 0 0a16.62 16.62 0 0 1 -16.62 16.62c0 0 -0 0 -0 0L582.94 2630.61c-0 0 -0 0 -0 0a16.62 16.62 0 0 1 -16.62 -16.62c0 0 0 -0 0 -0L566.31 2613.98c0 -0 0 -0 0 -0a16.62 16.62 0 0 1 16.62 -16.62c0 0 0 0 0 0Z" fill="#65d0dc" fill-opacity="0.16"/><g transform="translate(581.27 2620.77) scale(0.01900 -0.01900)" fill="#90e1ea"><use href="#nm15" x="0"/><use href="#nm190" x="694"/><use href="#nm183" x="1250"/><use href="#nm163" x="2057"/><use href="#nm184" x="2255"/><use href="#nm155" x="2789"/></g><g transform="translate(60 2810.73) scale(0.02500 -0.02500)" fill="#f2f1ee" fill-opacity="0.64"><use href="#s40" x="0"/><use href="#s74" x="765"/><use href="#s87" x="995"/><use href="#s70" x="1467"/><use href="#s66" x="2275"/><use href="#s79" x="2829"/><use href="#s66" x="3634"/><use href="#s72" x="4188"/><use href="#s70" x="4780"/><use href="#s79" x="5356"/><use href="#s85" x="5929"/><use href="#s66" x="6481"/><use href="#s68" x="7267"/><use href="#s77" x="7819"/><use href="#s70" x="8049"/><use href="#s66" x="8620"/><use href="#s79" x="9174"/><use href="#s45" x="9979"/><use href="#s74" x="10545"/><use href="#s79" x="10775"/><use href="#s86" x="11348"/><use href="#s89" x="11911"/><use href="#s78" x="12658"/><use href="#s66" x="13552"/><use href="#s68" x="14106"/><use href="#s73" x="14658"/><use href="#s74" x="15231"/><use href="#s79" x="15461"/><use href="#s70" x="16034"/><use href="#s74" x="16842"/><use href="#s79" x="17072"/><use href="#s48" x="17877"/><use href="#s83" x="18654"/><use href="#s67" x="19004"/><use href="#s52" x="19600"/><use href="#s85" x="20246"/><use href="#s66" x="20566"/><use href="#s68" x="21120"/><use href="#s76" x="21672"/></g><g transform="translate(60 2846.98) scale(0.02500 -0.02500)" fill="#f2f1ee" fill-opacity="0.64"><use href="#s88" x="0"/><use href="#s73" x="715"/><use href="#s70" x="1288"/><use href="#s79" x="1864"/><use href="#s66" x="2669"/><use href="#s85" x="3455"/><use href="#s66" x="3775"/><use href="#s84" x="4329"/><use href="#s76" x="4849"/><use href="#s84" x="5581"/><use href="#s73" x="6101"/><use href="#s80" x="6674"/><use href="#s86" x="7259"/><use href="#s77" x="7822"/><use href="#s69" x="8052"/><use href="#s79" x="8883"/><use href="#s80" x="9456"/><use href="#s85" x="10036"/><use href="#s85" x="10588"/><use href="#s80" x="10903"/><use href="#s86" x="11488"/><use href="#s68" x="12051"/><use href="#s73" x="12603"/><use href="#s90" x="13408"/><use href="#s80" x="13859"/><use href="#s86" x="14444"/><use href="#s83" x="15007"/><use href="#s46" x="15589"/><use href="#s66" x="16468"/><use href="#s68" x="17022"/><use href="#s15" x="17554"/></g><g transform="translate(60 2759.36) scale(0.01758 -0.01758)" fill="#f2f1ee"><use href="#n48" x="0"/><use href="#n83" x="1572"/><use href="#n67" x="2250"/><use href="#n52" x="3357"/><use href="#n85" x="4615"/><use href="#n66" x="5216"/><use href="#n68" x="6236"/><use href="#n76" x="7273"/><use href="#n55" x="8634"/><use href="#n46" x="9876"/><use href="#n84" x="11551"/></g><path d="M651.2 2909.98c15.68 0 23.52 0 29.51 3.05a28 28 0 0 1 12.24 12.24c3.05 5.99 3.05 13.83 3.05 29.51L696 3195.18c0 15.68 0 23.52 -3.05 29.51a28 28 0 0 1 -12.24 12.24c-5.99 3.05 -13.83 3.05 -29.51 3.05L68.8 3239.98c-15.68 0 -23.52 0 -29.51 -3.05a28 28 0 0 1 -12.24 -12.24c-3.05 -5.99 -3.05 -13.83 -3.05 -29.51L24 2954.78c0 -15.68 0 -23.52 3.05 -29.51a28 28 0 0 1 12.24 -12.24c5.99 -3.05 13.83 -3.05 29.51 -3.05Z" fill="url(#tile)"/><path d="M651.5 2910.48c15.4 0 23.1 0 28.98 3a27.5 27.5 0 0 1 12.02 12.02c3 5.88 3 13.58 3 28.98L695.5 3195.48c0 15.4 0 23.1 -3 28.98a27.5 27.5 0 0 1 -12.02 12.02c-5.88 3 -13.58 3 -28.98 3L68.5 3239.48c-15.4 0 -23.1 0 -28.98 -3a27.5 27.5 0 0 1 -12.02 -12.02c-3 -5.88 -3 -13.58 -3 -28.98L24.5 2954.48c0 -15.4 0 -23.1 3 -28.98a27.5 27.5 0 0 1 12.02 -12.02c5.88 -3 13.58 -3 28.98 -3Z" fill="none" stroke="url(#tile-rim)"/><g transform="translate(60 2945.98) scale(1.5000)" color="#65d0dc" fill="none"><path stroke="currentColor" stroke-linecap="round" stroke-linejoin="round" stroke-width="1.5" d="M9.38 5.14c4.2-1.27 8.82.56 11.84 5.46.26.42.4.63.47.96.05.24.05.64 0 .88-.08.33-.2.54-.47.96-.47.76-.98 1.45-1.52 2.06M9.5 9.92c-.47.57-.75 1.29-.75 2.08 0 1.8 1.46 3.25 3.25 3.25.8 0 1.54-.3 2.1-.77"/><path stroke="currentColor" stroke-linecap="round" stroke-linejoin="round" stroke-width="1.5" d="M6.22 6.75c-1.27.95-2.44 2.23-3.44 3.85-.26.42-.4.63-.47.96-.05.24-.05.64 0 .88.08.33.2.54.47.96 3.65 5.92 9.61 7.35 14.38 4.28M2.75 2.75l18.5 18.5"/></g><path d="M643.38 2947.36c0 0 0 0 0 0a16.62 16.62 0 0 1 16.62 16.62c0 0 0 0 0 0L660 2963.98c0 0 0 0 0 0a16.62 16.62 0 0 1 -16.62 16.62c0 0 -0 0 -0 0L626.27 2980.61c-0 0 -0 0 -0 0a16.62 16.62 0 0 1 -16.62 -16.62c0 0 0 -0 0 -0L609.65 2963.98c0 -0 0 -0 0 -0a16.62 16.62 0 0 1 16.62 -16.62c0 0 0 0 0 0Z" fill="#ffffff" fill-opacity="0.12"/><g transform="translate(624.61 2970.77) scale(0.01900 -0.01900)" fill="#f2f1ee" fill-opacity="0.64"><use href="#nm378" x="0"/><use href="#nm441" x="597"/><use href="#nm379" x="734"/></g><g transform="translate(60 3124.48) scale(0.02500 -0.02500)" fill="#f2f1ee" fill-opacity="0.64"><use href="#s49" x="0"/><use href="#s80" x="606"/><use href="#s69" x="1199"/><use href="#s84" x="2030"/><use href="#s70" x="2550"/><use href="#s79" x="3126"/><use href="#s69" x="3699"/><use href="#s84" x="4298"/><use href="#s79" x="5050"/><use href="#s80" x="5623"/><use href="#s85" x="6203"/><use href="#s73" x="6533"/><use href="#s74" x="7106"/><use href="#s79" x="7336"/><use href="#s72" x="7909"/><use href="#s73" x="8733"/><use href="#s80" x="9306"/><use href="#s78" x="9891"/><use href="#s70" x="10785"/><use href="#s27" x="11361"/><use href="#s74" x="11833"/><use href="#s85" x="12063"/><use href="#s84" x="12383"/><use href="#s67" x="13135"/><use href="#s86" x="13731"/><use href="#s74" x="14294"/><use href="#s77" x="14524"/><use href="#s69" x="14754"/><use href="#s84" x="15353"/><use href="#s68" x="16105"/><use href="#s66" x="16657"/><use href="#s83" x="17211"/><use href="#s83" x="17561"/><use href="#s90" x="17911"/><use href="#s79" x="18604"/><use href="#s80" x="19177"/></g><g transform="translate(60 3160.73) scale(0.02500 -0.02500)" fill="#f2f1ee" fill-opacity="0.64"><use href="#s66" x="0"/><use href="#s79" x="554"/><use href="#s66" x="1127"/><use href="#s77" x="1681"/><use href="#s90" x="1911"/><use href="#s85" x="2372"/><use href="#s74" x="2702"/><use href="#s68" x="2932"/><use href="#s84" x="3489"/><use href="#s76" x="4241"/><use href="#s70" x="4726"/><use href="#s90" x="5297"/><use href="#s13" x="5643"/><use href="#s66" x="6115"/><use href="#s79" x="6669"/><use href="#s69" x="7242"/><use href="#s52" x="8073"/><use href="#s85" x="8719"/><use href="#s66" x="9039"/><use href="#s67" x="9593"/><use href="#s77" x="10189"/><use href="#s90" x="10419"/><use href="#s8" x="10880"/><use href="#s84" x="11031"/><use href="#s83" x="11783"/><use href="#s70" x="12123"/><use href="#s77" x="12699"/><use href="#s66" x="12929"/><use href="#s90" x="13478"/><use href="#s13" x="13824"/><use href="#s81" x="14296"/><use href="#s86" x="14895"/><use href="#s84" x="15458"/><use href="#s73" x="15978"/><use href="#s13" x="16559"/><use href="#s84" x="17031"/><use href="#s73" x="17551"/><use href="#s66" x="18124"/><use href="#s83" x="18678"/><use href="#s70" x="19018"/><use href="#s66" x="19826"/><use href="#s79" x="20380"/><use href="#s69" x="20953"/></g><g transform="translate(60 3196.98) scale(0.02500 -0.02500)" fill="#f2f1ee" fill-opacity="0.64"><use href="#s71" x="0"/><use href="#s70" x="288"/><use href="#s70" x="869"/><use href="#s69" x="1450"/><use href="#s67" x="2049"/><use href="#s66" x="2645"/><use href="#s68" x="3199"/><use href="#s76" x="3751"/><use href="#s84" x="4483"/><use href="#s70" x="5003"/><use href="#s83" x="5579"/><use href="#s87" x="5929"/><use href="#s74" x="6411"/><use href="#s68" x="6641"/><use href="#s70" x="7198"/><use href="#s84" x="7776"/><use href="#s66" x="8528"/><use href="#s83" x="9082"/><use href="#s70" x="9422"/><use href="#s84" x="10230"/><use href="#s88" x="10750"/><use href="#s74" x="11465"/><use href="#s85" x="11695"/><use href="#s68" x="12010"/><use href="#s73" x="12562"/><use href="#s70" x="13135"/><use href="#s69" x="13716"/><use href="#s80" x="14547"/><use href="#s71" x="15137"/><use href="#s71" x="15445"/><use href="#s15" x="15693"/></g><g transform="translate(60 3073.11) scale(0.01758 -0.01758)" fill="#f2f1ee"><use href="#n59" x="0"/><use href="#n70" x="1187"/><use href="#n83" x="2254"/><use href="#n80" x="2890"/><use href="#n85" x="4378"/><use href="#n70" x="4970"/><use href="#n77" x="6036"/><use href="#n70" x="6412"/><use href="#n78" x="7479"/><use href="#n70" x="9078"/><use href="#n85" x="10125"/><use href="#n83" x="10726"/><use href="#n90" x="11404"/></g><g transform="translate(24 3292.18) scale(0.02300 -0.02300)" fill="#f2f1ee" fill-opacity="0.54"><use href="#s17" x="0"/><use href="#s15" x="606"/><use href="#s18" x="796"/><use href="#s78" x="1391"/><use href="#s66" x="2285"/><use href="#s83" x="2839"/><use href="#s76" x="3189"/><use href="#s84" x="3684"/><use href="#s88" x="4436"/><use href="#s73" x="5151"/><use href="#s66" x="5724"/><use href="#s85" x="6278"/><use href="#s85" x="6830"/><use href="#s73" x="7160"/><use href="#s70" x="7733"/><use href="#s71" x="8541"/><use href="#s74" x="8849"/><use href="#s83" x="9079"/><use href="#s84" x="9424"/><use href="#s85" x="9944"/><use href="#s83" x="10496"/><use href="#s70" x="10836"/><use href="#s77" x="11412"/><use href="#s70" x="11642"/><use href="#s66" x="12213"/><use href="#s84" x="12767"/><use href="#s70" x="13287"/><use href="#s67" x="14095"/><use href="#s83" x="14691"/><use href="#s74" x="15041"/><use href="#s79" x="15271"/><use href="#s72" x="15844"/><use href="#s84" x="16436"/><use href="#s28" x="16956"/><use href="#s36" x="17428"/><use href="#s80" x="18159"/><use href="#s78" x="18744"/><use href="#s74" x="19638"/><use href="#s79" x="19868"/><use href="#s72" x="20441"/><use href="#s13" x="21033"/><use href="#s88" x="21505"/><use href="#s73" x="22220"/><use href="#s66" x="22793"/><use href="#s85" x="23347"/><use href="#s71" x="23899"/><use href="#s80" x="24187"/><use href="#s77" x="24772"/><use href="#s77" x="25002"/><use href="#s80" x="25232"/><use href="#s88" x="25812"/><use href="#s84" x="26527"/><use href="#s74" x="27279"/><use href="#s85" x="27509"/><use href="#s15" x="27829"/></g></svg>
